<?xml version="1.0" encoding="utf-8"?>
<!-- Generator: Adobe Illustrator 26.5.0, SVG Export Plug-In . SVG Version: 6.00 Build 0)  -->
<svg version="1.1" id="Calque_1" xmlns="http://www.w3.org/2000/svg" xmlns:xlink="http://www.w3.org/1999/xlink" x="0px" y="0px"
	 viewBox="0 0 428 926" style="enable-background:new 0 0 428 926;" xml:space="preserve">
<style type="text/css">
	.st0{fill:url(#SVGID_1_);}
	.st1{opacity:0.8;}
	.st2{fill:#68ADF2;}
	.st3{fill:#C1DDF4;}
	.st4{fill:#3682C6;}
	.st5{fill:#619ED1;}
	.st6{fill:#3076AA;}
	.st7{fill:none;}
	.st8{fill:#DC6363;}
	.st9{fill:#F7F7F7;}
	.st10{fill:#B5B5B5;}
</style>
<g>
	
		<linearGradient id="SVGID_1_" gradientUnits="userSpaceOnUse" x1="214" y1="2" x2="214" y2="928" gradientTransform="matrix(1 0 0 -1 0 928)">
		<stop  offset="0" style="stop-color:#1E273C"/>
		<stop  offset="1" style="stop-color:#2F557D"/>
	</linearGradient>
	<rect class="st0" width="428" height="926"/>
</g>
<image style="overflow:visible;" width="1080" height="1080" xlink:href="6A4D5C49.jpg"  transform="matrix(0.5753 0 0 0.5753 -689.0903 83.9548)">
</image>
<g class="st1">
	<circle class="st2" cx="319.6" cy="353.9" r="12.8"/>
	
		<ellipse transform="matrix(0.7071 -0.7071 0.7071 0.7071 -149.8709 331.617)" class="st3" cx="325.4" cy="346.7" rx="1.4" ry="3.4"/>
</g>
<g class="st1">
	<circle class="st2" cx="339.9" cy="307.7" r="18.6"/>
	
		<ellipse transform="matrix(0.7071 -0.7071 0.7071 0.7071 -108.1609 333.2751)" class="st3" cx="348.2" cy="297.2" rx="2.1" ry="4.9"/>
</g>
<g class="st1">
	<circle class="st2" cx="348.2" cy="379.9" r="5.2"/>
	
		<ellipse transform="matrix(0.7071 -0.7071 0.7071 0.7071 -163.8803 358.2682)" class="st3" cx="350.5" cy="377" rx="0.6" ry="1.4"/>
</g>
<path class="st2" d="M94.6,212.8H81.4c-1.3,0-2.4-1.1-2.4-2.4V208c0-2.2,1.8-4.1,4.1-4.1h9.7c2.2,0,4.1,1.8,4.1,4.1v2.5
	C96.9,211.7,95.9,212.8,94.6,212.8z"/>
<path class="st2" d="M94.7,230.9H81.2c-1.2,0-2.2-1-2.2-2.2v-4.3c0-1.2,1-2.2,2.2-2.2h13.4c1.2,0,2.2,1,2.2,2.2v4.3
	C96.9,229.9,95.9,230.9,94.7,230.9z"/>
<path class="st2" d="M94.9,249H81c-1.1,0-2-0.9-2-2v-4.5c0-1.3,1-2.3,2.3-2.3h13.2c1.3,0,2.3,1,2.3,2.3v4.5
	C96.9,248.1,96,249,94.9,249z"/>
<path class="st2" d="M95.5,217.4H80.4c-0.8,0-1.4-0.6-1.4-1.4v-1.9c0-0.8,0.6-1.4,1.4-1.4h15.1c0.8,0,1.4,0.6,1.4,1.4v1.9
	C96.9,216.8,96.2,217.4,95.5,217.4z"/>
<path class="st2" d="M95,222.1H80.9c-1,0-1.9-0.8-1.9-1.9v-0.9c0-1,0.8-1.9,1.9-1.9H95c1,0,1.9,0.8,1.9,1.9v0.9
	C96.9,221.2,96,222.1,95,222.1z"/>
<path class="st2" d="M95.2,235.5H80.6c-0.9,0-1.6-0.7-1.6-1.6v-1.4c0-0.9,0.7-1.6,1.6-1.6h14.6c0.9,0,1.6,0.7,1.6,1.6v1.4
	C96.9,234.8,96.1,235.5,95.2,235.5z"/>
<path class="st2" d="M94.7,240.2H81.1c-1.2,0-2.1-1-2.1-2.1v-0.4c0-1.2,1-2.1,2.1-2.1h13.6c1.2,0,2.1,1,2.1,2.1v0.4
	C96.9,239.2,95.9,240.2,94.7,240.2z"/>
<rect x="85.6" y="198.8" class="st4" width="4.7" height="5.1"/>
<rect x="84.4" y="202.3" class="st4" width="7.1" height="1.6"/>
<ellipse transform="matrix(0.8362 -0.5485 0.5485 0.8362 -102.5579 86.832)" class="st3" cx="94.1" cy="215.1" rx="0.7" ry="1.4"/>
<ellipse transform="matrix(0.8362 -0.5485 0.5485 0.8362 -104.8933 87.5297)" class="st3" cx="94.1" cy="219.3" rx="0.7" ry="1.4"/>
<ellipse transform="matrix(0.8362 -0.5485 0.5485 0.8362 -107.4942 88.3066)" class="st3" cx="94.1" cy="224.1" rx="0.7" ry="1.4"/>
<ellipse transform="matrix(0.8362 -0.5485 0.5485 0.8362 -112.1121 89.686)" class="st3" cx="94.1" cy="232.5" rx="0.7" ry="1.4"/>
<ellipse transform="matrix(0.8362 -0.5485 0.5485 0.8362 -114.5534 90.4153)" class="st3" cx="94.1" cy="237" rx="0.7" ry="1.4"/>
<ellipse transform="matrix(0.8362 -0.5485 0.5485 0.8362 -117.5532 91.3113)" class="st3" cx="94.1" cy="242.4" rx="0.7" ry="1.4"/>
<g>
	<path class="st5" d="M173.8,133.1c-0.4,0.7-0.9,1.6-1.3,2.7c-0.6,1.9-0.6,3.6-0.5,4.6l-0.7-0.3c-0.5-0.2-1-0.5-1.4-0.8
		c-2-1.6-2.8-4.3-1.9-6.7c0-0.1,0-0.2,0.1-0.2l0.4-0.9l2.8-5.7l0.5-1.1l2.8-5.7l0.5-1.1l2.8-5.7l0.5-1.1l3.1-6.3l0.5-1.1l2.9-13
		l5.7-14.1c2.3-5.6,7.6-9,13.3-9.1l1.8,0.7c-1.7,1-3.9,2.6-6,4.9c-1.2,1.3-2.1,2.6-2.9,3.8c-2,5.3-4.1,10.6-6.1,15.9
		c-1.1,4.3-2.2,8.6-3.3,12.9C183,114.9,178.4,124,173.8,133.1z"/>
	<path class="st2" d="M218,88c-0.2,0.5-0.4,0.9-0.6,1.3l-5.2,12.7l-7.1,11.3l-0.4,1.2l-2.2,6.7l-0.4,1.1l-2,6l-0.4,1.1l-2,6
		l-0.4,1.1l-2,6l0.1,0l-0.5,1.1l0,0c-1.3,2.9-4.7,4.3-7.7,3.1l-15.4-6.3c-0.1-1.1-0.1-2.7,0.5-4.6c0.3-1.2,0.8-2.1,1.3-2.7
		c4.6-9.1,9.3-18.1,13.9-27.2c1.1-4.3,2.2-8.6,3.3-12.9c2-5.3,4.1-10.6,6.1-15.9c0.7-1.2,1.7-2.5,2.9-3.8c2.1-2.3,4.3-3.9,6-4.9
		l0.3-0.6c1.3,0.2,2.5,0.5,3.7,1c1.9,0.8,3.6,1.9,4.9,3.3l0,0C218.8,76.1,220.3,82.3,218,88z"/>
	<path class="st6" d="M208.3,62.5l-2.2,5.3c-0.7-0.1-1.4-0.1-2.1-0.1l2.3-5.6C207,62.2,207.6,62.3,208.3,62.5z"/>
	<path class="st4" d="M217.1,66.5l-2.3,5.6l-8.9-3.6l2.4-6c1.1,0.2,2.3,0.6,3.5,1.1C214.1,64.5,215.9,65.6,217.1,66.5z"/>
	<ellipse transform="matrix(0.9813 -0.1923 0.1923 0.9813 -11.347 42.5999)" class="st3" cx="213.8" cy="79.8" rx="1.3" ry="5"/>
	<path class="st3" d="M204.1,67.7L204.1,67.7z"/>
	<path class="st6" d="M206.2,67.8l-0.3,0.6l-1.8-0.7C204.8,67.7,205.5,67.7,206.2,67.8z"/>
	<line class="st7" x1="208.3" y1="62.5" x2="208.4" y2="62.5"/>
</g>
<path class="st8" d="M472.2,383.2h-3c0.7,0,1.3-0.8,1.3-1.8c0-1-0.6-1.8-1.4-1.8h3.2c-0.8,0-1.4,0.8-1.4,1.8
	C470.9,382.4,471.5,383.2,472.2,383.2z"/>
<path class="st9" d="M470.5,381.4c0,1-0.6,1.8-1.3,1.8h-3.3v-3.7h3.2C469.8,379.6,470.5,380.4,470.5,381.4z"/>
<path class="st8" d="M478.6,383.2h-3.1c0.7,0,1.3-0.8,1.3-1.8c0-1-0.6-1.8-1.4-1.8h3.2c-0.8,0-1.4,0.8-1.4,1.8
	C477.3,382.4,477.9,383.2,478.6,383.2z"/>
<path class="st9" d="M476.8,381.4c0,1-0.6,1.8-1.3,1.8h-3.2c0.7,0,1.3-0.8,1.3-1.8c0-1-0.6-1.8-1.4-1.8h3.2
	C476.2,379.6,476.8,380.4,476.8,381.4z"/>
<path class="st8" d="M485,383.2h-3c0.7,0,1.3-0.8,1.3-1.8c0-1-0.6-1.8-1.4-1.8h3.2c-0.8,0-1.4,0.8-1.4,1.8
	C483.7,382.4,484.3,383.2,485,383.2z"/>
<path class="st9" d="M483.2,381.4c0,1-0.6,1.8-1.3,1.8h-3.2c0.7,0,1.3-0.8,1.3-1.8c0-1-0.6-1.8-1.4-1.8h3.2
	C482.6,379.6,483.2,380.4,483.2,381.4z"/>
<path class="st8" d="M491.5,379.6c-0.4,0-0.7,0.2-1,0.5v0c-0.1,0.1-0.2,0.2-0.2,0.4c0,0,0,0,0,0c-0.1,0.1-0.1,0.3-0.1,0.4l-0.7-0.4
	c-0.2-0.6-0.7-0.9-1.2-0.9H491.5z"/>
<path class="st9" d="M489.4,380.5c0.1,0.3,0.2,0.6,0.2,0.9c0,1-0.6,1.8-1.3,1.8h-3.2c0.7,0,1.3-0.8,1.3-1.8c0-1-0.6-1.8-1.4-1.8h3.2
	C488.8,379.6,489.2,379.9,489.4,380.5z"/>
<path class="st8" d="M490.1,381.4c0,0.2,0,0.5,0.1,0.7C490.1,381.9,490.1,381.6,490.1,381.4c0-0.2,0-0.3,0.1-0.5
	c0-0.2,0.1-0.3,0.1-0.4c-0.1,0.1-0.1,0.3-0.1,0.4C490.1,381.1,490.1,381.2,490.1,381.4z"/>
<path class="st9" d="M490.2,382.1c0.1,0.2,0.2,0.4,0.3,0.6C490.4,382.5,490.3,382.3,490.2,382.1z"/>
<path class="st9" d="M491.5,383.2L491.5,383.2c-0.1,0-0.2,0-0.2,0C491.3,383.2,491.4,383.2,491.5,383.2z"/>
<path class="st8" d="M491.5,379.6L491.5,379.6c-0.4,0-0.7,0.2-1,0.5C490.7,379.8,491.1,379.6,491.5,379.6z"/>
<path class="st8" d="M491.4,383.2h-3c0.7,0,1.3-0.8,1.3-1.8c0-0.3-0.1-0.6-0.2-0.9l0.7,0.4c0,0.1-0.1,0.3-0.1,0.5
	c0,0.2,0,0.5,0.1,0.7c0.1,0.2,0.2,0.4,0.3,0.6c0.1,0.1,0.1,0.2,0.2,0.2c0.1,0.1,0.2,0.2,0.3,0.2c0,0,0,0,0,0c0,0,0.1,0,0.2,0
	C491.3,383.2,491.3,383.2,491.4,383.2z"/>
<path class="st8" d="M490.2,382.1c-0.1-0.2-0.1-0.5-0.1-0.7c0-0.2,0-0.3,0.1-0.5l0,0c0,0.2-0.1,0.3-0.1,0.5
	C490.1,381.6,490.1,381.9,490.2,382.1z"/>
<path class="st8" d="M490.5,382.7c-0.1-0.2-0.2-0.4-0.3-0.6C490.3,382.3,490.4,382.5,490.5,382.7z"/>
<path class="st9" d="M492.3,382.8L460,438.7l-3.2-1.8l31-53.7l0-0.1l1.5-2.7c0.1,0.3,0.2,0.6,0.2,0.9c0,1-0.6,1.8-1.3,1.8h3
	c0,0-0.1,0-0.1,0c0.1,0,0.1,0,0.2,0c0.1,0,0.2,0,0.2,0c0.1,0,0.2,0,0.2-0.1c0,0,0.1,0,0.1-0.1c0.1,0,0.1-0.1,0.2-0.1
	C492.2,382.9,492.3,382.8,492.3,382.8z"/>
<ellipse transform="matrix(0.5 -0.866 0.866 0.5 -149.8749 615.9317)" class="st10" cx="458.5" cy="437.8" rx="1.4" ry="1.8"/>
<ellipse class="st10" cx="465.9" cy="381.4" rx="1.4" ry="1.8"/>
<ellipse class="st7" cx="465.9" cy="381.4" rx="1.4" ry="1.8"/>
<g>
	<ellipse class="st7" cx="465.9" cy="381.4" rx="1.4" ry="1.8"/>
	<path class="st7" d="M470.4,381.4c0,1-0.6,1.8-1.3,1.8c0,0-0.1,0-0.1,0c0,0-0.1,0-0.1,0c-0.7,0-1.3-0.8-1.3-1.8
		c0-1,0.6-1.8,1.4-1.8C469.8,379.6,470.4,380.4,470.4,381.4z"/>
	<path class="st8" d="M473.6,381.4c0,1-0.6,1.8-1.3,1.8h-0.1c-0.7,0-1.3-0.8-1.3-1.8c0-1,0.6-1.8,1.4-1.8S473.6,380.4,473.6,381.4z"
		/>
	<path class="st7" d="M472.3,383.2C472.3,383.2,472.3,383.2,472.3,383.2c-0.1,0-0.1,0-0.1,0H472.3z"/>
	<path class="st7" d="M476.8,381.4c0,1-0.6,1.8-1.3,1.8c0,0-0.1,0-0.1,0c0,0-0.1,0-0.1,0c-0.7,0-1.3-0.8-1.3-1.8
		c0-1,0.6-1.8,1.4-1.8C476.2,379.6,476.8,380.4,476.8,381.4z"/>
	<path class="st8" d="M480,381.4c0,1-0.6,1.8-1.3,1.8h-0.1c-0.7,0-1.3-0.8-1.3-1.8c0-1,0.6-1.8,1.4-1.8
		C479.4,379.6,480,380.4,480,381.4z"/>
	<path class="st7" d="M478.7,383.2C478.7,383.2,478.7,383.2,478.7,383.2c-0.1,0-0.1,0-0.1,0H478.7z"/>
	<path class="st7" d="M483.2,381.4c0,1-0.6,1.8-1.3,1.8c0,0-0.1,0-0.1,0s-0.1,0-0.1,0c-0.7,0-1.3-0.8-1.3-1.8c0-1,0.6-1.8,1.4-1.8
		S483.2,380.4,483.2,381.4z"/>
	<path class="st8" d="M486.4,381.4c0,1-0.6,1.8-1.3,1.8H485c-0.7,0-1.3-0.8-1.3-1.8c0-1,0.6-1.8,1.4-1.8
		C485.8,379.6,486.4,380.4,486.4,381.4z"/>
	<path class="st7" d="M485.1,383.2C485.1,383.2,485.1,383.2,485.1,383.2c-0.1,0-0.1,0-0.1,0H485.1z"/>
	<path class="st7" d="M489.6,381.4c0,1-0.6,1.8-1.3,1.8c0,0-0.1,0-0.1,0s-0.1,0-0.1,0c-0.1,0-0.2,0-0.3-0.1c-0.6-0.2-1-0.9-1-1.8
		c0-1,0.6-1.8,1.4-1.8c0.5,0,1,0.4,1.2,0.9C489.6,380.8,489.6,381.1,489.6,381.4z"/>
	<path class="st8" d="M491.4,379.6v2.1l-1.3-0.7c0-0.2,0.1-0.3,0.1-0.4c0,0,0,0,0,0c0.1-0.1,0.1-0.3,0.2-0.4v0
		C490.7,379.8,491.1,379.6,491.4,379.6z"/>
	<path class="st8" d="M492.3,382.8l0.3-0.5l-1.1-0.7v-2.1c0.2,0,0.4,0.1,0.6,0.2c0.1,0,0.1,0.1,0.2,0.1c0.1,0.1,0.1,0.1,0.2,0.2
		c0.3,0.3,0.4,0.8,0.4,1.3C492.8,381.9,492.6,382.4,492.3,382.8z"/>
	<path class="st7" d="M490.5,380.1c0.3-0.3,0.6-0.5,1-0.5c0.2,0,0.4,0.1,0.6,0.2c-0.2-0.1-0.4-0.2-0.6-0.2
		C491.1,379.6,490.7,379.8,490.5,380.1z"/>
	<path class="st8" d="M492.6,382.3l-0.3,0.5c0,0,0,0,0,0c0,0-0.1,0.1-0.1,0.1c-0.1,0.1-0.1,0.1-0.2,0.1c-0.1,0-0.1,0.1-0.1,0.1
		c-0.1,0-0.1,0.1-0.2,0.1c-0.1,0-0.2,0-0.2,0v-1.6L492.6,382.3z"/>
	<path class="st8" d="M491.4,381.6v1.6c-0.1,0-0.1,0-0.2,0c-0.1,0-0.1,0-0.2-0.1c0,0,0,0,0,0c-0.1-0.1-0.3-0.1-0.4-0.2
		c-0.1-0.1-0.1-0.1-0.2-0.2c-0.1-0.2-0.2-0.4-0.3-0.6c-0.1-0.2-0.1-0.5-0.1-0.7c0-0.2,0-0.3,0.1-0.5L491.4,381.6z"/>
	<path class="st8" d="M490.1,381.4c0,0.3,0,0.5,0.1,0.7C490.1,381.9,490.1,381.6,490.1,381.4c0-0.2,0-0.3,0.1-0.5
		c0-0.2,0.1-0.3,0.1-0.4c-0.1,0.1-0.1,0.3-0.1,0.4C490.1,381.1,490.1,381.2,490.1,381.4z"/>
	<path class="st8" d="M490.2,382.1c0.1,0.2,0.2,0.4,0.3,0.6C490.4,382.5,490.3,382.3,490.2,382.1z"/>
	<path class="st7" d="M491.7,383.2c-0.1,0-0.2,0-0.2,0c0,0-0.1,0-0.1,0c-0.1,0-0.1,0-0.1,0c0.1,0,0.1,0,0.2,0
		C491.5,383.2,491.6,383.2,491.7,383.2z"/>
</g>
</svg>
