<?xml version="1.0" encoding="utf-8"?>
<!-- Generator: Adobe Illustrator 26.5.0, SVG Export Plug-In . SVG Version: 6.00 Build 0)  -->
<svg version="1.1" id="Calque_1" xmlns="http://www.w3.org/2000/svg" xmlns:xlink="http://www.w3.org/1999/xlink" x="0px" y="0px"
	 viewBox="0 0 428 926" style="enable-background:new 0 0 428 926;" xml:space="preserve">
<style type="text/css">
	.st0{fill:#DC6363;}
	.st1{fill:none;stroke:#000000;stroke-miterlimit:10;}
	.st2{fill:#A57250;}
	.st3{fill:none;}
	.st4{fill:none;stroke:#000000;stroke-width:0.5;stroke-miterlimit:10;}
	.st5{fill:#999999;}
	.st6{fill:#A3A3A3;}
	.st7{fill:#C6C6C6;}
	.st8{fill:#1E273C;}
	.st9{fill:#444444;}
	.st10{fill:#CC5E5E;}
	.st11{fill:#EAEAEA;}
	.st12{fill:#FFFFFF;}
	.st13{fill:#C96624;}
	.st14{fill:#EA7628;}
	.st15{fill:#E8E8E8;}
</style>
<path class="st0" d="M151,718"/>
<path class="st1" d="M116.5,680.5c-5,11.7-13.2,27.4-26.5,43.5c-15.1,18.3-30.9,30.2-42.5,37.5"/>
<path class="st2" d="M144.1,732.5l-3,1.4l-25-52.7c-0.4-0.8,0-1.8,0.8-2.2l0,0c0.8-0.4,1.8,0,2.2,0.8L144.1,732.5z"/>
<path class="st3" d="M136.2,736c1.8,0.3,3.2,0.1,3.8,0"/>
<path class="st3" d="M126.5,729.1c-0.2-0.4-0.4-0.8-0.5-1.1"/>
<path class="st4" d="M128,731c-1.2,5.4-3.3,9.3-5,12c-6.1,9.4-17,16-17,16l0,0"/>
<path class="st4" d="M134.5,733.5c0.6,3.2,1,8.2,0,14c-0.9,5.2-2.6,9.2-4,12"/>
<path class="st4" d="M131.5,733.5c-0.7,3.6-1.8,8.1-4,13c-2.2,5.1-4.8,9.1-7,12l0,0"/>
<path class="st4" d="M127.5,733.5c0.1,0.3,0.9,2.2,3,3c1.9,0.8,3.6,0.1,4,0"/>
<path class="st4" d="M125.5,738.5c0.7,0.8,2,2.1,4,3c2.6,1.2,4.9,1.1,6,1"/>
<path class="st4" d="M123.5,742.5c0.7,0.8,2,2.1,4,3c3,1.4,5.8,1.2,7,1"/>
<path class="st4" d="M120.5,746.5c1.2,1,2.9,2.1,5,3c3.2,1.4,6,1.9,8,2"/>
<path class="st4" d="M116.5,750.5c1,1,2.4,2,4,3c4.3,2.5,8.6,3,11,3"/>
<path class="st4" d="M111.5,754.5c0.6,0.8,1.9,2.1,4,3c2.1,0.9,4,1,5,1"/>
<g>
	<path class="st5" d="M136.2,736c-0.8,0.4-1.7,0.5-2.7,0.5c-3.9,0-7-3.1-7-7c0-0.1,0-0.3,0-0.4c0.7,1.4,2.1,3.4,4.5,4.9
		C132.8,735.2,134.7,735.7,136.2,736z"/>
	<path class="st6" d="M140.5,729.5c0,2.9-1.8,5.4-4.3,6.5c-1.5-0.2-3.4-0.8-5.2-2c-2.4-1.5-3.8-3.5-4.5-4.9c0.2-3.7,3.2-6.6,7-6.6
		C137.4,722.5,140.5,725.6,140.5,729.5z"/>
</g>
<rect x="169" y="698" class="st7" width="39" height="31"/>
<polygon class="st8" points="204.5,691 199.5,691 198,688 206,688 "/>
<path class="st0" d="M204,688h-4v-3c0-1.1,0.9-2,2-2l0,0c1.1,0,2,0.9,2,2V688z"/>
<rect x="170.8" y="672" class="st5" width="1" height="8"/>
<rect x="167.5" y="672" class="st5" width="7.5" height="1"/>
<path class="st9" d="M173.2,691h-4v-11c0-1.1,0.9-2,2-2l0,0c1.1,0,2,0.9,2,2V691z"/>
<g>
	<path class="st0" d="M213.9,698c-0.4-2.3-2.3-4-4.7-4h-43.4c-0.3,0-0.7,0-1,0.1c0.7,1.3,1.5,2.6,2.2,3.9v32h4v-24h14v24h29v-31.2
		C214,698.5,214,698.3,213.9,698z M206,714h-13v-12h13V714z"/>
	<path class="st10" d="M166.9,730H161v-31.2c0-0.3,0-0.5,0.1-0.8h2.6L166.9,730z"/>
	<path class="st11" d="M163.4,694.7c-1.2,0.7-2.1,1.9-2.3,3.3H161l-4-7h6L163.4,694.7z"/>
	<path class="st11" d="M163.7,698H161c0.2-1.5,1.1-2.7,2.4-3.4L163.7,698z"/>
	<path class="st12" d="M218,691l-4,7h-47c-0.7-1.3-1.5-2.6-2.2-3.9c-0.6-1-1.2-2.1-1.8-3.1H218z"/>
	<path class="st11" d="M167.1,698h-3.4l-0.3-3.4c0.4-0.3,0.9-0.5,1.4-0.6C165.6,695.3,166.3,696.7,167.1,698z"/>
	<path class="st11" d="M164.8,694.1c-0.5,0.1-1,0.3-1.4,0.5L163,691C163.6,692,164.2,693.1,164.8,694.1z"/>
	<polygon class="st10" points="167,698 167,730 166.9,730 163.7,698 	"/>
</g>
<polygon class="st0" points="167,730 167,731 166.9,730 "/>
<g>
	<path class="st8" d="M287,718c-1.2,5.4-3.2,12.4-7,20c-4.2,8.4-9.1,14.7-13,19c-39,0-78,0-117,0c-3.4-2.6-7.8-6.5-12-12
		c-3.9-5.2-6.4-10.2-8-14L287,718z"/>
	<g>
		<path class="st13" d="M254.9,743.7c-1.5,0.9-3.3,1.3-5.1,1.3c-5.5-0.1-9.9-4.7-9.8-10.2c0-0.5,0-0.9,0.1-1.3
			c0.3,1.9,1.1,5,3.9,7.5c2.8,2.5,6,2.9,7,3C252.5,744.1,253.9,744,254.9,743.7z"/>
		<path class="st3" d="M257,743c-0.5,0.2-1.2,0.5-2.1,0.7"/>
		<path class="st3" d="M240.1,733.5c-0.1-0.7-0.1-1.3-0.1-1.5"/>
		<path class="st13" d="M255.2,737.8c0.4-0.8,0.7-1.7,0.7-2.7c0-3.2-2.5-5.9-5.8-6c-0.9,0-1.8,0.2-2.6,0.6c0.8-0.5,2.5-1.1,4.5-0.7
			c0.4,0.1,2.9,0.7,4,3C256.8,733.8,256.5,736.1,255.2,737.8z"/>
		<path class="st3" d="M255,738c0.1-0.1,0.1-0.1,0.2-0.2c0,0,0,0,0,0"/>
		<path class="st3" d="M247.5,729.7C247.5,729.7,247.5,729.7,247.5,729.7c-0.3,0.2-0.4,0.3-0.5,0.3"/>
		<g>
			<path class="st14" d="M250.2,725c-5.1-0.1-9.3,3.6-10.1,8.5c0.3,1.9,1.1,5,3.9,7.5c2.8,2.5,6,2.9,7,3c1.5,0.1,2.9,0,3.9-0.3
				c3-1.7,5-4.9,5.1-8.5C260.1,729.6,255.7,725.1,250.2,725z M255.2,737.8C255.2,737.8,255.2,737.8,255.2,737.8
				c-1,1.9-3,3.1-5.3,3.1c-3.2-0.1-5.8-2.7-5.8-6c0-2.3,1.4-4.3,3.4-5.2c0,0,0,0,0,0c0.8-0.5,2.5-1.1,4.5-0.7c0.4,0.1,2.9,0.7,4,3
				C256.8,733.8,256.5,736.1,255.2,737.8z"/>
			<g>
				<path class="st15" d="M246,732c-0.2,0.1-0.5,0.1-0.7-0.1l-2.8-2.6c-0.2-0.2-0.2-0.5,0-0.8l1.5,1.5
					C244.7,730.6,245.3,731.3,246,732z"/>
				<path class="st12" d="M246.7,731.2l-0.6,0.6c0,0-0.1,0.1-0.1,0.1c-0.7-0.7-1.3-1.3-2-2l-1.5-1.5c0,0,0,0,0-0.1l0.6-0.6
					c0.2-0.2,0.6-0.2,0.8,0l2.8,2.6C246.9,730.6,246.9,731,246.7,731.2z"/>
			</g>
			<g>
				<path class="st15" d="M257,743c-0.2,0.1-0.5,0.1-0.7-0.1l-2.8-2.6c-0.2-0.2-0.2-0.5,0-0.8l1.5,1.5
					C255.7,741.6,256.3,742.3,257,743z"/>
				<path class="st12" d="M257.7,742.2l-0.6,0.6c0,0-0.1,0.1-0.1,0.1c-0.7-0.7-1.3-1.3-2-2l-1.5-1.5c0,0,0,0,0-0.1l0.6-0.6
					c0.2-0.2,0.6-0.2,0.8,0l2.8,2.6C257.9,741.6,257.9,742,257.7,742.2z"/>
			</g>
			<g>
				<path class="st15" d="M253.4,731.2c-0.1-0.2-0.1-0.5,0.1-0.7l2.6-2.8c0.2-0.2,0.5-0.2,0.8,0l-1.5,1.5
					C254.7,729.9,254.1,730.6,253.4,731.2z"/>
				<path class="st12" d="M254.1,731.9l-0.6-0.6c0,0-0.1-0.1-0.1-0.1c0.7-0.7,1.3-1.3,2-2l1.5-1.5c0,0,0,0,0.1,0l0.6,0.6
					c0.2,0.2,0.2,0.6,0,0.8l-2.6,2.8C254.8,732.1,254.4,732.1,254.1,731.9z"/>
			</g>
			<g>
				<path class="st15" d="M242.4,742.2c-0.1-0.2-0.1-0.5,0.1-0.7l2.6-2.8c0.2-0.2,0.5-0.2,0.8,0l-1.5,1.5
					C243.7,740.9,243.1,741.6,242.4,742.2z"/>
				<path class="st12" d="M243.1,742.9l-0.6-0.6c0,0-0.1-0.1-0.1-0.1c0.7-0.7,1.3-1.3,2-2l1.5-1.5c0,0,0,0,0.1,0l0.6,0.6
					c0.2,0.2,0.2,0.6,0,0.8l-2.6,2.8C243.8,743.1,243.4,743.1,243.1,742.9z"/>
			</g>
		</g>
		<path class="st3" d="M246,732C246,732,246,732,246,732"/>
		<path class="st3" d="M242.4,728.5c-0.1-0.2-0.3-0.3-0.4-0.5"/>
	</g>
	<g>
		<path class="st13" d="M226.9,745.7c-1.5,0.9-3.3,1.3-5.1,1.3c-5.5-0.1-9.9-4.7-9.8-10.2c0-0.5,0-0.9,0.1-1.3
			c0.3,1.9,1.1,5,3.9,7.5c2.8,2.5,6,2.9,7,3C224.5,746.1,225.9,746,226.9,745.7z"/>
		<path class="st3" d="M229,745c-0.5,0.2-1.2,0.5-2.1,0.7"/>
		<path class="st3" d="M212.1,735.5c-0.1-0.7-0.1-1.3-0.1-1.5"/>
		<path class="st13" d="M227.2,739.8c0.4-0.8,0.7-1.7,0.7-2.7c0-3.2-2.5-5.9-5.8-6c-0.9,0-1.8,0.2-2.6,0.6c0.8-0.5,2.5-1.1,4.5-0.7
			c0.4,0.1,2.9,0.7,4,3C228.8,735.8,228.5,738.1,227.2,739.8z"/>
		<path class="st3" d="M227,740c0.1-0.1,0.1-0.1,0.2-0.2c0,0,0,0,0,0"/>
		<path class="st3" d="M219.5,731.7C219.5,731.7,219.5,731.7,219.5,731.7c-0.3,0.2-0.4,0.3-0.5,0.3"/>
		<g>
			<path class="st14" d="M222.2,727c-5.1-0.1-9.3,3.6-10.1,8.5c0.3,1.9,1.1,5,3.9,7.5c2.8,2.5,6,2.9,7,3c1.5,0.1,2.9,0,3.9-0.3
				c3-1.7,5-4.9,5.1-8.5C232.1,731.6,227.7,727.1,222.2,727z M227.2,739.8C227.2,739.8,227.2,739.8,227.2,739.8
				c-1,1.9-3,3.1-5.3,3.1c-3.2-0.1-5.8-2.7-5.8-6c0-2.3,1.4-4.3,3.4-5.2c0,0,0,0,0,0c0.8-0.5,2.5-1.1,4.5-0.7c0.4,0.1,2.9,0.7,4,3
				C228.8,735.8,228.5,738.1,227.2,739.8z"/>
			<g>
				<path class="st15" d="M218,734c-0.2,0.1-0.5,0.1-0.7-0.1l-2.8-2.6c-0.2-0.2-0.2-0.5,0-0.8l1.5,1.5
					C216.7,732.6,217.3,733.3,218,734z"/>
				<path class="st12" d="M218.7,733.2l-0.6,0.6c0,0-0.1,0.1-0.1,0.1c-0.7-0.7-1.3-1.3-2-2l-1.5-1.5c0,0,0,0,0-0.1l0.6-0.6
					c0.2-0.2,0.6-0.2,0.8,0l2.8,2.6C218.9,732.6,218.9,733,218.7,733.2z"/>
			</g>
			<g>
				<path class="st15" d="M229,745c-0.2,0.1-0.5,0.1-0.7-0.1l-2.8-2.6c-0.2-0.2-0.2-0.5,0-0.8l1.5,1.5
					C227.7,743.6,228.3,744.3,229,745z"/>
				<path class="st12" d="M229.7,744.2l-0.6,0.6c0,0-0.1,0.1-0.1,0.1c-0.7-0.7-1.3-1.3-2-2l-1.5-1.5c0,0,0,0,0-0.1l0.6-0.6
					c0.2-0.2,0.6-0.2,0.8,0l2.8,2.6C229.9,743.6,229.9,744,229.7,744.2z"/>
			</g>
			<g>
				<path class="st15" d="M225.4,733.2c-0.1-0.2-0.1-0.5,0.1-0.7l2.6-2.8c0.2-0.2,0.5-0.2,0.8,0l-1.5,1.5
					C226.7,731.9,226.1,732.6,225.4,733.2z"/>
				<path class="st12" d="M226.1,733.9l-0.6-0.6c0,0-0.1-0.1-0.1-0.1c0.7-0.7,1.3-1.3,2-2l1.5-1.5c0,0,0,0,0.1,0l0.6,0.6
					c0.2,0.2,0.2,0.6,0,0.8l-2.6,2.8C226.8,734.1,226.4,734.1,226.1,733.9z"/>
			</g>
			<g>
				<path class="st15" d="M214.4,744.2c-0.1-0.2-0.1-0.5,0.1-0.7l2.6-2.8c0.2-0.2,0.5-0.2,0.8,0l-1.5,1.5
					C215.7,742.9,215.1,743.6,214.4,744.2z"/>
				<path class="st12" d="M215.1,744.9l-0.6-0.6c0,0-0.1-0.1-0.1-0.1c0.7-0.7,1.3-1.3,2-2l1.5-1.5c0,0,0,0,0.1,0l0.6,0.6
					c0.2,0.2,0.2,0.6,0,0.8l-2.6,2.8C215.8,745.1,215.4,745.1,215.1,744.9z"/>
			</g>
		</g>
		<path class="st3" d="M218,734C218,734,218,734,218,734"/>
		<path class="st3" d="M214.4,730.5c-0.1-0.2-0.3-0.3-0.4-0.5"/>
	</g>
</g>
</svg>
