<?xml version="1.0" encoding="utf-8"?>
<!-- Generator: Adobe Illustrator 26.5.0, SVG Export Plug-In . SVG Version: 6.00 Build 0)  -->
<svg version="1.1" id="Calque_1" xmlns="http://www.w3.org/2000/svg" xmlns:xlink="http://www.w3.org/1999/xlink" x="0px" y="0px"
	 viewBox="0 0 428 926" style="enable-background:new 0 0 428 926;" xml:space="preserve">
<style type="text/css">
	.st0{fill:#DC6363;}
	.st1{fill:#F7F7F7;}
	.st2{fill:#B5B5B5;}
	.st3{fill:none;}
</style>
<g>
	<path class="st0" d="M271.5,430.5h-3c0.7,0,1.3-0.8,1.3-1.8c0-1-0.6-1.8-1.4-1.8h3.2c-0.8,0-1.4,0.8-1.4,1.8
		C270.3,429.6,270.8,430.4,271.5,430.5z"/>
	<path class="st1" d="M269.8,428.6c0,1-0.6,1.8-1.3,1.8h-3.3v-3.7h3.2C269.2,426.8,269.8,427.6,269.8,428.6z"/>
	<path class="st0" d="M277.9,430.5h-3.1c0.7,0,1.3-0.8,1.3-1.8c0-1-0.6-1.8-1.4-1.8h3.2c-0.8,0-1.4,0.8-1.4,1.8
		C276.6,429.6,277.2,430.4,277.9,430.5z"/>
	<path class="st1" d="M276.2,428.6c0,1-0.6,1.8-1.3,1.8h-3.2c0.7,0,1.3-0.8,1.3-1.8c0-1-0.6-1.8-1.4-1.8h3.2
		C275.6,426.8,276.2,427.6,276.2,428.6z"/>
	<path class="st0" d="M284.3,430.5h-3c0.7,0,1.3-0.8,1.3-1.8c0-1-0.6-1.8-1.4-1.8h3.2c-0.8,0-1.4,0.8-1.4,1.8
		C283,429.6,283.6,430.4,284.3,430.5z"/>
	<path class="st1" d="M282.6,428.6c0,1-0.6,1.8-1.3,1.8h-3.2c0.7,0,1.3-0.8,1.3-1.8c0-1-0.6-1.8-1.4-1.8h3.2
		C281.9,426.8,282.6,427.6,282.6,428.6z"/>
	<path class="st0" d="M290.8,426.8c-0.4,0-0.7,0.2-1,0.5v0c-0.1,0.1-0.2,0.2-0.2,0.4c0,0,0,0,0,0c-0.1,0.1-0.1,0.3-0.1,0.4l-0.7-0.4
		c-0.2-0.6-0.7-0.9-1.2-0.9H290.8z"/>
	<path class="st1" d="M288.9,428.6L288.9,428.6c0,0.5-0.1,0.9-0.4,1.3c0,0-0.1,0.1-0.1,0.1c0,0,0,0-0.1,0.1
		c-0.1,0.1-0.1,0.1-0.2,0.2c0,0,0,0,0,0c-0.1,0-0.1,0.1-0.2,0.1c0,0,0,0,0,0s0,0,0,0c0,0,0,0,0,0c0,0,0,0,0,0c0,0-0.1,0-0.1,0
		c0,0,0,0,0,0h0c0,0-0.1,0-0.1,0h-3.2c0.1,0,0.2,0,0.2-0.1c0.1,0,0.2-0.1,0.2-0.1s0.2-0.1,0.2-0.2c0.4-0.3,0.6-0.9,0.6-1.5
		c0-0.3,0-0.5-0.1-0.7c-0.2-0.5-0.5-1-1-1.1c-0.1,0-0.2,0-0.3,0h3.2c0.1,0,0.2,0,0.4,0.1c0.3,0.1,0.6,0.4,0.8,0.8l0,0v0
		c0,0.1,0,0.1,0.1,0.2s0,0.2,0.1,0.2c0,0,0,0,0,0c0,0,0,0.1,0,0.1c0,0,0,0.1,0,0.1v0C288.9,428.6,288.9,428.6,288.9,428.6z"/>
	<path class="st0" d="M289.4,428.6c0,0.2,0,0.5,0.1,0.7C289.5,429.1,289.4,428.9,289.4,428.6c0-0.2,0-0.3,0.1-0.5
		c0-0.2,0.1-0.3,0.1-0.4c-0.1,0.1-0.1,0.3-0.1,0.4C289.4,428.3,289.4,428.5,289.4,428.6z"/>
	<path class="st1" d="M289.5,429.4c0.1,0.2,0.2,0.4,0.3,0.6C289.7,429.8,289.6,429.6,289.5,429.4z"/>
	<path class="st1" d="M290.6,430.4L290.6,430.4C290.6,430.5,290.6,430.5,290.6,430.4C290.6,430.5,290.6,430.5,290.6,430.4z"/>
	<path class="st1" d="M290.8,430.5L290.8,430.5C290.7,430.5,290.7,430.5,290.8,430.5c-0.1,0-0.1,0-0.1,0
		C290.7,430.5,290.7,430.5,290.8,430.5z"/>
	<path class="st0" d="M290.8,426.8L290.8,426.8c-0.4,0-0.7,0.2-1,0.5C290.1,427,290.4,426.8,290.8,426.8z"/>
	<path class="st0" d="M290.7,430.5h-3c0,0,0.1,0,0.1,0h0c0,0,0,0,0,0c0,0,0.1,0,0.1,0c0,0,0,0,0,0c0,0,0,0,0,0c0,0,0,0,0,0s0,0,0,0
		c0.1,0,0.1,0,0.2-0.1c0,0,0,0,0,0c0.1,0,0.1-0.1,0.2-0.2c0,0,0.1,0,0.1-0.1c0,0,0.1-0.1,0.1-0.1c0.2-0.3,0.4-0.8,0.4-1.2v0
		c0,0,0-0.1,0-0.1v0c0,0,0-0.1,0-0.1c0,0,0-0.1,0-0.1c0,0,0,0,0,0c0-0.1,0-0.2-0.1-0.2c0-0.1,0-0.1-0.1-0.2v0l0.7,0.4l0,0
		c0,0.1,0,0.1-0.1,0.2c0,0,0,0,0,0c0,0.1,0,0.2,0,0.2c0,0,0,0,0,0.1c0,0.1,0,0.2,0,0.4c0,0.1,0,0.2,0.1,0.3c0,0.1,0.1,0.2,0.1,0.3
		c0,0.1,0.1,0.2,0.2,0.3c0.1,0.1,0.1,0.1,0.2,0.2c0.1,0.1,0.2,0.2,0.4,0.2c0,0,0,0,0,0c0,0,0.1,0,0.2,0L290.7,430.5
		C290.6,430.5,290.6,430.5,290.7,430.5L290.7,430.5C290.6,430.5,290.6,430.5,290.7,430.5C290.7,430.5,290.7,430.5,290.7,430.5z"/>
	<path class="st0" d="M289.5,429.4c-0.1-0.2-0.1-0.5-0.1-0.7c0-0.2,0-0.3,0.1-0.5l0,0c0,0.2-0.1,0.3-0.1,0.5
		C289.4,428.9,289.5,429.1,289.5,429.4z"/>
	<path class="st0" d="M289.8,429.9c-0.1-0.2-0.2-0.4-0.3-0.6C289.6,429.6,289.7,429.8,289.8,429.9z"/>
	<path class="st0" d="M262.9,479.8l-1.8,3c0.4-0.7,0-1.6-0.9-2.1c-0.8-0.5-1.7-0.4-2.2,0.1l1.6-2.7l0.2-0.3c0.4-0.5,1.4-0.6,2.2-0.2
		C262.9,478.2,263.3,479.2,262.9,479.8z"/>
	<path class="st1" d="M261.1,482.9l-1.8,3c0,0,0,0,0,0l-3.2-1.8l0.1-0.1c0,0,0,0,0,0l1.6-2.8l0.2-0.3c0.4-0.5,1.4-0.6,2.2-0.1
		C261.1,481.3,261.5,482.2,261.1,482.9z"/>
	<path class="st1" d="M290.6,430.4C290.6,430.5,290.6,430.5,290.6,430.4C290.6,430.5,290.6,430.5,290.6,430.4L290.6,430.4z"/>
	<path class="st0" d="M266.4,473.7C266.4,473.7,266.4,473.8,266.4,473.7C266.4,473.8,266.4,473.8,266.4,473.7l-1.8,3
		c0.4-0.6,0-1.6-0.9-2.1c-0.8-0.5-1.7-0.4-2.1,0.1l1.5-2.6c0,0,0,0,0,0l0.2-0.3c0,0,0,0,0,0c0.4-0.5,1.3-0.6,2.2-0.1
		C266.4,472.2,266.8,473.1,266.4,473.7z"/>
	<path class="st1" d="M264.6,476.8l-1.8,3.1c0.4-0.7,0-1.6-0.9-2.1c-0.8-0.5-1.8-0.4-2.2,0.2l1.6-2.7l0.2-0.4c0,0,0,0,0,0
		c0.4-0.5,1.3-0.5,2.1-0.1C264.6,475.2,265,476.1,264.6,476.8z"/>
	<path class="st0" d="M269.9,467.7l-1.8,3c0.4-0.7,0-1.6-0.9-2.1c-0.8-0.4-1.6-0.4-2.1,0l1.4-2.5c0,0,0,0,0,0l0.3-0.5c0,0,0,0,0,0
		c0.5-0.4,1.3-0.5,2.1,0C269.9,466.1,270.3,467,269.9,467.7z"/>
	<path class="st1" d="M268.2,470.7L268.2,470.7l-1.8,3c0.4-0.7,0-1.6-0.9-2.1c-0.8-0.5-1.8-0.4-2.2,0.1l1.5-2.6c0,0,0,0,0,0l0.3-0.5
		c0,0,0,0,0,0c0.5-0.4,1.3-0.5,2.1,0C268.1,469.1,268.5,470.1,268.2,470.7z"/>
	<path class="st0" d="M273.4,461.6l-1.8,3c0.4-0.7,0-1.6-0.9-2.1c-0.8-0.4-1.6-0.4-2.1,0l1.4-2.5c0,0,0,0,0,0l0.3-0.5c0,0,0,0,0,0
		c0.5-0.4,1.3-0.4,2.1,0C273.4,460,273.8,460.9,273.4,461.6z"/>
	<path class="st1" d="M271.7,464.6l-1.8,3c0.4-0.7,0-1.6-0.9-2.1c-0.8-0.4-1.6-0.4-2.1,0l1.5-2.5c0,0,0,0,0,0l0.3-0.5c0,0,0,0,0,0
		c0.5-0.4,1.3-0.5,2.1,0C271.6,463,272.1,464,271.7,464.6z"/>
	<path class="st0" d="M277,455.5C277,455.5,277,455.5,277,455.5C276.9,455.5,276.9,455.5,277,455.5l-1.8,3.1c0.4-0.7,0-1.6-0.9-2.1
		c-0.8-0.4-1.6-0.4-2.1,0l1.4-2.4l0.3-0.6c0,0,0,0,0,0c0.5-0.4,1.3-0.4,2.1,0C276.9,453.9,277.3,454.8,277,455.5z"/>
	<path class="st1" d="M275.2,458.5l-1.8,3c0.4-0.7,0-1.6-0.9-2.1c-0.8-0.4-1.6-0.4-2.1,0l1.4-2.5c0,0,0,0,0,0l0.3-0.5c0,0,0,0,0,0
		c0.5-0.4,1.3-0.4,2.1,0C275.2,456.9,275.6,457.9,275.2,458.5z"/>
	<path class="st0" d="M280.5,449.4l-1.7,3c0.4-0.7-0.1-1.6-0.9-2.1c-0.7-0.4-1.6-0.4-2.1,0l1.4-2.4l0.4-0.6c0.5-0.4,1.3-0.4,2,0
		C280.4,447.8,280.9,448.7,280.5,449.4z"/>
	<path class="st1" d="M278.7,452.4C278.7,452.4,278.7,452.4,278.7,452.4C278.7,452.4,278.7,452.4,278.7,452.4l-1.8,3.1
		c0.4-0.7,0-1.6-0.9-2.1c-0.7-0.4-1.6-0.4-2.1,0l1.4-2.4c0,0,0,0,0,0l0.4-0.6c0.5-0.4,1.3-0.4,2.1,0
		C278.7,450.8,279.1,451.8,278.7,452.4z"/>
	<path class="st0" d="M284,443.3l-1.8,3c0.4-0.7,0-1.6-0.9-2.1c-0.7-0.4-1.5-0.4-2,0l1.3-2.3c0,0,0,0,0,0l0.4-0.7
		c0.5-0.4,1.3-0.4,2,0C284,441.7,284.4,442.6,284,443.3z"/>
	<path class="st1" d="M282.2,446.3l-1.8,3c0.4-0.7,0-1.6-0.9-2.1c-0.7-0.4-1.6-0.4-2,0l1.4-2.4c0,0,0,0,0,0l0.4-0.7v0
		c0.5-0.4,1.3-0.4,2,0C282.2,444.7,282.6,445.7,282.2,446.3z"/>
	<path class="st0" d="M287.5,437.2C287.5,437.2,287.5,437.2,287.5,437.2C287.5,437.2,287.5,437.2,287.5,437.2l-1.8,3.1
		c0.4-0.7,0-1.6-0.9-2.1c-0.7-0.4-1.5-0.4-2,0l1.3-2.3c0,0,0,0,0,0l0.4-0.7c0,0,0,0,0,0c0.5-0.4,1.3-0.4,2,0
		C287.5,435.6,287.9,436.5,287.5,437.2z"/>
	<path class="st1" d="M285.7,440.3l-1.8,3c0.4-0.7,0-1.6-0.9-2.1c-0.7-0.4-1.5-0.4-2,0l1.4-2.4c0,0,0,0,0,0l0.4-0.7l0,0
		c0.5-0.4,1.3-0.4,2,0C285.7,438.6,286.1,439.6,285.7,440.3z"/>
	<path class="st0" d="M291.1,430.4c0,0.3,0,0.5-0.1,0.7l-1.8,3c0.4-0.7,0-1.6-0.9-2.1c-0.7-0.4-1.5-0.4-2-0.1l0.8-1.5h0.3
		c0,0,0,0,0.1,0s0,0,0.1,0h3c0,0,0,0,0,0h0c0,0,0,0,0.1,0c0.1,0,0.2,0,0.2,0c0,0,0,0,0,0C291,430.4,291.1,430.4,291.1,430.4z"/>
	<path class="st1" d="M287.5,430.5h-0.3l0-0.1l0.4-0.7c0,0,0,0,0,0l0.5-0.8v0l0.7-1.2c0,0.1,0,0.1,0.1,0.2s0,0.2,0.1,0.2
		c0,0,0,0,0,0c0,0,0,0.1,0,0.1v0c0,0,0,0,0,0.1v0c0,0,0,0.1,0,0.1v0c0,0.5-0.1,0.9-0.4,1.2c0,0-0.1,0.1-0.1,0.1c0,0,0,0-0.1,0.1
		c-0.1,0.1-0.1,0.1-0.2,0.2c0,0,0,0,0,0c-0.1,0-0.1,0.1-0.2,0.1c0,0,0,0,0,0s0,0,0,0c0,0,0,0,0,0c0,0,0,0,0,0c0,0,0,0,0,0
		c0,0,0,0,0,0c0,0-0.1,0-0.1,0c0,0,0,0,0,0h0c0,0-0.1,0-0.1,0h0C287.6,430.5,287.6,430.5,287.5,430.5
		C287.6,430.5,287.5,430.5,287.5,430.5z"/>
	<path class="st1" d="M289.3,434.2l-1.7,3c0.3-0.7-0.1-1.6-0.9-2.1c-0.7-0.4-1.5-0.4-2,0l1.3-2.3l0.4-0.8c0,0,0,0,0,0
		c0.5-0.3,1.3-0.3,2,0.1C289.2,432.5,289.6,433.5,289.3,434.2z"/>
	<path class="st1" d="M290.8,430.5c0.1,0,0.2,0,0.2,0C290.9,430.5,290.8,430.5,290.8,430.5C290.7,430.5,290.7,430.5,290.8,430.5
		L290.8,430.5z"/>
	<path class="st1" d="M291.6,430.1l-0.6,1.1c0.1-0.2,0.2-0.5,0.1-0.7c0,0,0,0,0.1,0c0,0,0.1,0,0.1-0.1c0.1,0,0.1-0.1,0.2-0.1
		C291.5,430.1,291.6,430.1,291.6,430.1C291.6,430.1,291.6,430.1,291.6,430.1z"/>
	<ellipse transform="matrix(0.5 -0.866 0.866 0.5 -291.1484 465.7579)" class="st2" cx="257.8" cy="485" rx="1.4" ry="1.8"/>
	<g>
		<ellipse transform="matrix(0.5 -0.866 0.866 0.5 -291.1484 465.7579)" class="st3" cx="257.8" cy="485" rx="1.4" ry="1.8"/>
		<path class="st3" d="M261.1,482.9c-0.4,0.7-1.4,0.8-2.3,0.3c-0.8-0.5-1.2-1.3-1-2c0,0,0-0.1,0-0.1c0-0.1,0.1-0.1,0.1-0.1
			c0.4-0.5,1.4-0.6,2.2-0.1C261.1,481.3,261.5,482.2,261.1,482.9z"/>
		<path class="st3" d="M259.8,477.9l-0.2,0.3c0-0.1,0-0.1,0.1-0.2C259.7,478,259.8,477.9,259.8,477.9z"/>
		<path class="st3" d="M264.6,476.8c-0.4,0.7-1.4,0.8-2.3,0.3c-0.8-0.5-1.2-1.3-1-1.9c0-0.1,0-0.1,0.1-0.2c0-0.1,0.1-0.1,0.1-0.2
			c0,0,0,0,0,0c0.4-0.5,1.3-0.5,2.1-0.1C264.6,475.2,265,476.1,264.6,476.8z"/>
		<path class="st3" d="M263.3,471.8l-0.2,0.3c0-0.1,0-0.2,0.1-0.2C263.3,471.9,263.3,471.8,263.3,471.8z"/>
		<path class="st3" d="M268.2,470.7L268.2,470.7c-0.4,0.7-1.4,0.8-2.3,0.3c-0.8-0.4-1.2-1.2-1-1.8c0,0,0,0,0,0
			c0-0.1,0.1-0.2,0.1-0.3c0-0.1,0.1-0.1,0.2-0.2c0,0,0,0,0,0c0.5-0.4,1.3-0.5,2.1,0C268.1,469.1,268.5,470.1,268.2,470.7z"/>
		<path class="st3" d="M266.9,465.6l-0.3,0.5c0-0.1,0.1-0.2,0.1-0.3C266.8,465.7,266.8,465.7,266.9,465.6z"/>
		<path class="st3" d="M271.7,464.6c-0.4,0.7-1.4,0.8-2.3,0.3c-0.8-0.4-1.2-1.2-1-1.8c0,0,0,0,0,0c0-0.1,0.1-0.2,0.1-0.3
			c0.1-0.1,0.1-0.2,0.2-0.2c0,0,0,0,0,0c0.5-0.4,1.3-0.5,2.1,0C271.6,463,272.1,464,271.7,464.6z"/>
		<path class="st3" d="M270.4,459.5l-0.3,0.5c0-0.1,0-0.2,0.1-0.3C270.3,459.6,270.4,459.5,270.4,459.5z"/>
		<path class="st3" d="M275.2,458.5c-0.4,0.7-1.4,0.8-2.3,0.3c-0.8-0.4-1.2-1.2-1-1.8c0,0,0,0,0,0c0-0.1,0-0.2,0.1-0.3
			c0-0.1,0.1-0.2,0.2-0.2c0,0,0,0,0,0c0.5-0.4,1.3-0.4,2.1,0C275.2,456.9,275.6,457.9,275.2,458.5z"/>
		<path class="st3" d="M274,453.4l-0.3,0.6c0-0.1,0.1-0.2,0.1-0.3C273.8,453.5,273.9,453.4,274,453.4z"/>
		<path class="st3" d="M278.7,452.4C278.7,452.4,278.7,452.4,278.7,452.4C278.7,452.4,278.7,452.4,278.7,452.4
			c-0.4,0.7-1.4,0.8-2.3,0.3c-0.7-0.4-1.1-1.1-1.1-1.8c0,0,0,0,0,0c0-0.1,0-0.2,0.1-0.3c0.1-0.1,0.2-0.2,0.2-0.3
			c0.5-0.4,1.3-0.4,2.1,0C278.7,450.8,279.1,451.8,278.7,452.4z"/>
		<path class="st3" d="M277.5,447.2l-0.4,0.6c0-0.1,0.1-0.2,0.1-0.3C277.3,447.4,277.4,447.3,277.5,447.2z"/>
		<path class="st3" d="M282.2,446.3c-0.4,0.7-1.4,0.8-2.3,0.3c-0.7-0.4-1.1-1.1-1-1.8c0,0,0,0,0,0c0-0.1,0-0.2,0.1-0.4
			s0.2-0.2,0.3-0.3v0c0.5-0.4,1.3-0.4,2,0C282.2,444.7,282.6,445.7,282.2,446.3z"/>
		<path class="st3" d="M281,441.1l-0.4,0.7c0-0.1,0.1-0.3,0.1-0.4S280.9,441.2,281,441.1z"/>
		<path class="st3" d="M285.7,440.3c-0.4,0.7-1.4,0.8-2.3,0.3c-0.7-0.4-1.1-1.2-1-1.8c0,0,0,0,0,0c0-0.1,0-0.2,0.1-0.4
			s0.2-0.2,0.3-0.3l0,0c0.5-0.4,1.3-0.4,2,0C285.7,438.6,286.1,439.6,285.7,440.3z"/>
		<path class="st3" d="M284.5,435l-0.4,0.7c0-0.1,0-0.3,0.1-0.4C284.3,435.2,284.4,435.1,284.5,435z"/>
		<path class="st3" d="M289.3,434.2c-0.4,0.7-1.4,0.8-2.3,0.3c-0.7-0.4-1.1-1.1-1-1.7c0-0.2,0-0.3,0.1-0.4c0.1-0.1,0.2-0.2,0.3-0.3
			c0,0,0,0,0,0c0.5-0.3,1.3-0.3,2,0.1C289.2,432.5,289.6,433.5,289.3,434.2z"/>
		<path class="st3" d="M291.1,430.4L291.1,430.4c0,0-0.1,0-0.2,0.1c0,0,0,0,0,0c-0.1,0-0.1,0-0.2,0c0,0,0,0-0.1,0h0c0,0,0,0,0,0
			h-2.9c0,0,0,0,0,0h0v0c-0.1-0.2-0.2-0.5-0.1-0.7c0,0,0,0,0,0c0-0.2,0-0.3,0.1-0.4s0.2-0.3,0.3-0.3v0c0.2-0.2,0.5-0.2,0.8-0.2h0
			c0.2,0,0.3,0,0.5,0.1h0c0.2,0,0.5,0.1,0.7,0.3c0.3,0.2,0.5,0.4,0.7,0.6C291,429.8,291.1,430.1,291.1,430.4z"/>
	</g>
	<ellipse class="st2" cx="265.2" cy="428.7" rx="1.4" ry="1.8"/>
	<ellipse class="st3" cx="265.2" cy="428.7" rx="1.4" ry="1.8"/>
	<g>
		<ellipse class="st3" cx="265.2" cy="428.6" rx="1.4" ry="1.8"/>
		<path class="st3" d="M269.7,428.6c0,1-0.6,1.8-1.3,1.8c0,0-0.1,0-0.1,0c0,0-0.1,0-0.1,0c-0.7,0-1.3-0.8-1.3-1.8
			c0-1,0.6-1.8,1.4-1.8C269.1,426.8,269.7,427.6,269.7,428.6z"/>
		<path class="st0" d="M272.9,428.6c0,1-0.6,1.8-1.3,1.8h-0.1c-0.7,0-1.3-0.8-1.3-1.8c0-1,0.6-1.8,1.4-1.8S272.9,427.6,272.9,428.6z
			"/>
		<path class="st3" d="M271.6,430.5C271.6,430.5,271.6,430.5,271.6,430.5c-0.1,0-0.1,0-0.1,0H271.6z"/>
		<path class="st3" d="M276.1,428.6c0,1-0.6,1.8-1.3,1.8c0,0-0.1,0-0.1,0c0,0-0.1,0-0.1,0c-0.7,0-1.3-0.8-1.3-1.8
			c0-1,0.6-1.8,1.4-1.8C275.5,426.8,276.1,427.6,276.1,428.6z"/>
		<path class="st0" d="M279.3,428.6c0,1-0.6,1.8-1.3,1.8h-0.1c-0.7,0-1.3-0.8-1.3-1.8c0-1,0.6-1.8,1.4-1.8
			C278.7,426.8,279.3,427.6,279.3,428.6z"/>
		<path class="st3" d="M278,430.5C278,430.5,278,430.5,278,430.5c-0.1,0-0.1,0-0.1,0H278z"/>
		<path class="st3" d="M282.5,428.6c0,1-0.6,1.8-1.3,1.8c0,0-0.1,0-0.1,0c0,0-0.1,0-0.1,0c-0.7,0-1.3-0.8-1.3-1.8
			c0-1,0.6-1.8,1.4-1.8C281.9,426.8,282.5,427.6,282.5,428.6z"/>
		<path class="st0" d="M285.7,428.6c0,1-0.6,1.8-1.3,1.8h-0.1c-0.7,0-1.3-0.8-1.3-1.8c0-1,0.6-1.8,1.4-1.8
			C285.1,426.8,285.7,427.6,285.7,428.6z"/>
		<path class="st3" d="M284.4,430.5C284.4,430.5,284.4,430.5,284.4,430.5c-0.1,0-0.1,0-0.1,0H284.4z"/>
		<path class="st3" d="M288.9,428.6C288.9,428.6,288.9,428.6,288.9,428.6c0,0.5-0.1,1-0.4,1.3c0,0-0.1,0.1-0.1,0.1c0,0,0,0-0.1,0.1
			c-0.1,0.1-0.1,0.1-0.2,0.2c0,0,0,0,0,0c-0.1,0-0.1,0.1-0.2,0.1c0,0,0,0,0,0c0,0,0,0,0,0c0,0,0,0,0,0c0,0,0,0,0,0c0,0-0.1,0-0.1,0
			c0,0,0,0,0,0v0c0,0-0.1,0-0.1,0h0c0,0,0,0-0.1,0s0,0-0.1,0c-0.1,0-0.2,0-0.3-0.1h0c-0.6-0.2-1-0.9-1-1.8c0-1,0.6-1.8,1.3-1.8
			c0,0,0,0,0.1,0c0,0,0.1,0,0.1,0c0.1,0,0.2,0,0.3,0.1c0.3,0.1,0.6,0.4,0.8,0.8l0,0v0c0,0.1,0,0.1,0.1,0.2c0,0.1,0.1,0.3,0.1,0.4v0
			C288.9,428.5,288.9,428.6,288.9,428.6z"/>
		<path class="st0" d="M290.8,426.8v2.1l-1.3-0.7c0-0.2,0.1-0.3,0.1-0.4c0,0,0,0,0,0c0.1-0.1,0.1-0.3,0.2-0.4v0
			C290.1,427,290.4,426.8,290.8,426.8z"/>
		<path class="st0" d="M291.6,430l0.3-0.5l-1.1-0.7v-2.1c0.2,0,0.4,0.1,0.6,0.2c0.1,0,0.1,0.1,0.2,0.1c0.1,0.1,0.1,0.1,0.2,0.2
			c0.3,0.3,0.4,0.8,0.4,1.3C292.1,429.2,291.9,429.7,291.6,430z"/>
		<path class="st3" d="M289.8,427.4c0.3-0.3,0.6-0.5,1-0.5c0.2,0,0.4,0.1,0.6,0.2c-0.2-0.1-0.4-0.2-0.6-0.2
			C290.4,426.8,290.1,427,289.8,427.4z"/>
		<path class="st0" d="M291.9,429.6l-0.3,0.5c0,0,0,0,0,0c0,0,0,0,0,0c0,0,0,0,0,0c0,0,0,0-0.1,0.1c0,0-0.1,0.1-0.2,0.1
			c-0.1,0-0.1,0.1-0.1,0.1c0,0,0,0-0.1,0v0c0,0-0.1,0-0.2,0c0,0,0,0,0,0c-0.1,0-0.1,0-0.2,0v-1.6L291.9,429.6z"/>
		<path class="st0" d="M290.8,428.9v1.6c-0.1,0-0.1,0-0.2,0c-0.1,0-0.1,0-0.2-0.1c0,0,0,0,0,0c-0.1-0.1-0.3-0.1-0.4-0.2
			c-0.1-0.1-0.1-0.1-0.2-0.2c-0.1-0.2-0.2-0.4-0.3-0.6c-0.1-0.2-0.1-0.5-0.1-0.7c0-0.2,0-0.3,0.1-0.5L290.8,428.9z"/>
		<path class="st0" d="M289.4,428.6c0,0.3,0,0.5,0.1,0.7C289.4,429.1,289.4,428.9,289.4,428.6c0-0.2,0-0.3,0.1-0.5
			c0-0.2,0.1-0.3,0.1-0.4c-0.1,0.1-0.1,0.3-0.1,0.4C289.4,428.3,289.4,428.5,289.4,428.6z"/>
		<path class="st0" d="M289.5,429.4c0.1,0.2,0.2,0.4,0.3,0.6C289.7,429.8,289.6,429.6,289.5,429.4z"/>
		<path class="st3" d="M290.6,430.4L290.6,430.4C290.6,430.5,290.6,430.5,290.6,430.4C290.6,430.5,290.6,430.5,290.6,430.4z"/>
		<path class="st3" d="M291,430.4c-0.1,0-0.1,0-0.2,0c0,0,0,0-0.1,0h0c0,0,0,0,0,0c0,0,0,0,0,0c0,0,0.1,0,0.1,0
			C290.8,430.5,290.9,430.5,291,430.4z"/>
	</g>
</g>
</svg>
