<svg id="Calque_1" data-name="Calque 1" xmlns="http://www.w3.org/2000/svg" viewBox="0 0 46.16 46.16"><defs><style>.cls-1{fill:#c96624;}.cls-2{fill:none;}.cls-3{fill:#ea7628;}.cls-4{fill:#e8e8e8;}.cls-5{fill:#fff;}</style></defs><path class="cls-1" d="M34.39,43.16a22.9,22.9,0,0,1-11.77,3A23.16,23.16,0,0,1,0,22.62a12.23,12.23,0,0,1,.23-3,28.6,28.6,0,0,0,9,17.31,28.59,28.59,0,0,0,16.16,6.92A27,27,0,0,0,34.39,43.16Z"/><path class="cls-2" d="M39.24,41.54a28.55,28.55,0,0,1-4.85,1.62"/><path class="cls-2" d="M.23,19.62A24.62,24.62,0,0,1,0,16.16"/><path class="cls-1" d="M35.08,29.54A13.63,13.63,0,0,0,23.31,9.47a13.53,13.53,0,0,0-6,1.38A14.91,14.91,0,0,1,27.7,9.24c.92.23,6.69,1.61,9.23,6.92A13.5,13.5,0,0,1,35.08,29.54Z"/><path class="cls-2" d="M34.62,30l.46-.47h0"/><path class="cls-2" d="M17.31,10.85h0c-.69.46-.92.69-1.15.69"/><path class="cls-3" d="M23.54,0A23.19,23.19,0,0,0,.23,19.62a28.6,28.6,0,0,0,9,17.31,28.59,28.59,0,0,0,16.16,6.92,27,27,0,0,0,9-.69A23.32,23.32,0,0,0,46.16,23.54,23,23,0,0,0,23.54,0ZM35.08,29.54h0A13.61,13.61,0,0,1,22.85,36.7,13.8,13.8,0,0,1,9.47,22.85a13.23,13.23,0,0,1,7.84-12h0A14.91,14.91,0,0,1,27.7,9.24c.92.23,6.69,1.61,9.23,6.92A13.5,13.5,0,0,1,35.08,29.54Z"/><path class="cls-4" d="M13.85,16.16a1.43,1.43,0,0,1-1.62-.23l-6.46-6a1.4,1.4,0,0,1,0-1.85l3.46,3.46C10.85,12.93,12.23,14.54,13.85,16.16Z"/><path class="cls-5" d="M15.47,14.31,14.08,15.7l-.23.23L9.23,11.31,5.77,7.85V7.62L7.16,6.24A1.38,1.38,0,0,1,9,6.24l6.47,6A1.72,1.72,0,0,1,15.47,14.31Z"/><path class="cls-4" d="M39.24,41.54a1.43,1.43,0,0,1-1.62-.23l-6.46-6a1.39,1.39,0,0,1,0-1.84l3.46,3.46C36.24,38.31,37.62,39.93,39.24,41.54Z"/><path class="cls-5" d="M40.85,39.7l-1.38,1.38-.23.23L34.62,36.7l-3.46-3.46V33l1.38-1.39a1.41,1.41,0,0,1,1.85,0l6.46,6A1.73,1.73,0,0,1,40.85,39.7Z"/><path class="cls-4" d="M30.93,14.31a1.42,1.42,0,0,1,.23-1.61l6-6.46a1.37,1.37,0,0,1,1.84,0L35.54,9.7C33.93,11.31,32.54,12.93,30.93,14.31Z"/><path class="cls-5" d="M32.54,15.93l-1.38-1.39-.23-.23L35.54,9.7,39,6.24h.24l1.38,1.38a1.41,1.41,0,0,1,0,1.85l-6,6.46A1.73,1.73,0,0,1,32.54,15.93Z"/><path class="cls-4" d="M5.54,39.7a1.43,1.43,0,0,1,.23-1.62l6-6.46a1.4,1.4,0,0,1,1.85,0l-3.46,3.46C8.54,36.7,7.16,38.31,5.54,39.7Z"/><path class="cls-5" d="M7.16,41.31,5.77,39.93l-.23-.23,4.62-4.62,3.46-3.46h.23L15.24,33a1.4,1.4,0,0,1,0,1.84l-6,6.46A1.72,1.72,0,0,1,7.16,41.31Z"/><path class="cls-2" d="M5.54,8.08c-.23-.46-.69-.69-.92-1.15"/></svg>