<svg id="Calque_1" data-name="Calque 1" xmlns="http://www.w3.org/2000/svg" xmlns:xlink="http://www.w3.org/1999/xlink" viewBox="0 0 768 1024"><defs><style>.cls-1{fill:url(#Dégradé_sans_nom_3);}.cls-2{fill:#e2a85a;}.cls-3,.cls-4{fill:#f5b95f;}.cls-4{stroke:#f5b95f;stroke-linecap:round;stroke-miterlimit:10;stroke-width:7px;}.cls-5{fill:#fccd8d;}.cls-6{fill:#2f557d;}.cls-7{fill:#eaeaea;}.cls-8{fill:#fff;}.cls-9{fill:#ededed;}.cls-10{fill:#efefef;}.cls-11{fill:none;}.cls-12{fill:#1e273c;}.cls-13{fill:#376691;}</style><linearGradient id="Dégradé_sans_nom_3" x1="384" y1="729.99" x2="384" y2="-86.11" gradientTransform="translate(0 86.11)" gradientUnits="userSpaceOnUse"><stop offset="0" stop-color="#72b9ff"/><stop offset="1" stop-color="#5792cc"/></linearGradient></defs><rect class="cls-1" width="768" height="816.1"/><path class="cls-2" d="M629.68,206.92a69.76,69.76,0,0,1-13.6,1.45A64.33,64.33,0,0,1,551.71,144a59.86,59.86,0,0,1,1.45-13.6c.43,6.22,3,33.56,26,54.82A82.92,82.92,0,0,0,629.68,206.92Z"/><path class="cls-3" d="M680.46,144a64.51,64.51,0,0,1-50.63,62.92h0a82.92,82.92,0,0,1-50.49-21.7c-23-21.4-25.6-48.6-26-54.82v-.14A64.32,64.32,0,0,1,680.46,144Z"/><path class="cls-4" d="M616.08,60.1V42"/><path class="cls-4" d="M616.08,246.7V228.62"/><path class="cls-4" d="M675.68,84.83c4.2-4.19,8.54-8.53,12.73-12.73"/><path class="cls-4" d="M543.75,216.76,556.48,204"/><path class="cls-4" d="M700.42,144.43H718.5"/><path class="cls-4" d="M513.81,144.29h18.08"/><path class="cls-4" d="M675.68,203.89l12.73,12.72"/><path class="cls-4" d="M543.75,72c4.2,4.19,8.54,8.53,12.73,12.73"/><ellipse class="cls-5" cx="648.31" cy="103.61" rx="5.06" ry="11.43" transform="translate(116.62 488.77) rotate(-45)"/><path class="cls-3" d="M629.83,206.92h0a82.9,82.9,0,0,1-50.63-21.7c-23-21.4-25.61-48.6-26-54.82v-.14Z"/><rect class="cls-6" y="816.1" width="768" height="207.9"/><path class="cls-7" d="M669.17,639.45a16.28,16.28,0,0,1-11.86,5.06H519.89a16.67,16.67,0,0,1-15.77-22c1.3,4.34,3.76,9.4,8.53,12.59a20.51,20.51,0,0,0,8.68,2.89C530.74,638.87,589,639.45,669.17,639.45Z"/><path class="cls-8" d="M674,627.87a16.69,16.69,0,0,1-4.63,11.58c-80.29,0-138.44-.58-147.84-1.45a20.47,20.47,0,0,1-8.68-2.89c-4.78-3.19-7.23-8.25-8.54-12.59A16.43,16.43,0,0,1,520,611.24H657.45A16.62,16.62,0,0,1,674,627.87Z"/><path class="cls-9" d="M464.92,639.74a16.63,16.63,0,0,1-12.3,5.49H427.31a16.73,16.73,0,0,1-16.64-16.63,12.06,12.06,0,0,1,.15-2.32c1.44,4.2,4.19,9.12,9.25,11.72a15.19,15.19,0,0,0,4.34,1.45C433.53,641.18,454.21,640.31,464.92,639.74Z"/><path class="cls-8" d="M469.26,628.6a16,16,0,0,1-4.34,11.14c-10.71.57-31.39,1.3-40.51-.29a15.19,15.19,0,0,1-4.34-1.45c-5.06-2.6-7.81-7.52-9.25-11.72A16.67,16.67,0,0,1,427.31,612h25.31A16.65,16.65,0,0,1,469.26,628.6Z"/><path class="cls-8" d="M708.66,617.75H571.24a16.64,16.64,0,1,1,0-33.27H708.66a16.64,16.64,0,1,1,0,33.27Z"/><path class="cls-10" d="M335.16,322.65a27.48,27.48,0,0,1-18.52,7.23H179.22a27.46,27.46,0,0,1-27.48-27.48c4.77,7.08,12.15,15.33,23.14,18.8.29.15.58.15.87.29s.58.15.87.29.43.14.72.14h0a5.77,5.77,0,0,1,.72.15h.15a.53.53,0,0,1,.43.14c.73.15,2.17.44,3.47.58C201.21,324.53,313.75,322.94,335.16,322.65Z"/><path class="cls-10" d="M336.9,321.2h-.29c-1,0-4.78.15-10.42.15-11.28.14-30.09.43-50.48.57H275c-41.8.44-90,.87-92.87.58a15.3,15.3,0,0,1-3.47-.58.53.53,0,0,1-.43-.14h-.15c-.29,0-.43-.14-.72-.14h0c-.29,0-.43-.15-.72-.15a2,2,0,0,1-.87-.29c-.29-.14-.58-.14-.87-.29-11-3.47-18.37-11.71-23.14-18.8a34.11,34.11,0,0,1,.29-3.91c4.62,7.67,11.86,16.2,22.85,19.82a22.28,22.28,0,0,0,3.62.87c.58.14,1,.14,1.44.29.87.14,1.6.14,2.17.29.58,0,1.16.14,1.74.14h.87c.87,0,2,.15,3.18.15a10,10,0,0,1,2,.14h0a7.26,7.26,0,0,1,1.73.14c30.23,1.16,103.58.87,132.94.87h12.15Z"/><path class="cls-8" d="M344.13,302.4a27.46,27.46,0,0,1-7.52,18.8h0a14.16,14.16,0,0,1-1.45,1.45h0c-8.25,0-32.55-.29-59.6-.58h-.72c-32-.43-67.56-1-84.91-1.74h0a9.21,9.21,0,0,1-2-.14c-1.16,0-2.17-.15-3.18-.15h-.87c-.58,0-1.16-.14-1.74-.14a14.51,14.51,0,0,1-2.17-.29,4.92,4.92,0,0,1-1.44-.29c-1-.14-2.32-.58-3.62-.87-11-3.47-18.23-12.15-22.85-19.81v-.44a27.42,27.42,0,0,1,27.19-23.14H316.64A27.26,27.26,0,0,1,344.13,302.4Z"/><path class="cls-8" d="M254.44,274.91H117a20.25,20.25,0,1,1,0-40.5H254.44a20.25,20.25,0,0,1,0,40.5Z"/><path class="cls-10" d="M335.16,322.65c-21.41.29-134,1.88-153,0,2.75.29,50.92-.15,92.87-.58h.73C302.76,322.36,327.06,322.65,335.16,322.65Z"/><path class="cls-11" d="M335.45,322.65h-.29c-8.25,0-32.55-.29-59.6-.58h-.72c-32-.43-67.56-1-84.91-1.74h0a9.21,9.21,0,0,1-2-.14c-1.16,0-2.17-.15-3.18-.15h-.87c-.58,0-1.16-.14-1.74-.14a14.51,14.51,0,0,1-2.17-.29,4.92,4.92,0,0,1-1.44-.29c-1-.14-2.32-.58-3.62-.87-11-3.47-18.23-12.15-22.85-19.81-.15-.15-.15-.29-.29-.44H152q86.13,11.51,172.43,23.15a5.12,5.12,0,0,1,1.59.29c3,.43,6.07.86,9,1.15A1.1,1.1,0,0,1,335.45,322.65Z"/><path class="cls-11" d="M96.77,253.21c1.3,4.49,3.76,9.84,8.68,13a20.45,20.45,0,0,0,8.68,2.9c9.69,1,70.3,1.59,153.33,1.44"/><path class="cls-11" d="M674.67,639.45h-5.5"/><path class="cls-11" d="M504.12,622.52c0-.14-.15-.29-.15-.43"/><path class="cls-11" d="M470.7,639.45c-1.15,0-3.18.14-5.78.29"/><path class="cls-11" d="M410.82,626.28c-.29-1-.58-1.88-.87-2.75"/><path class="cls-12" d="M147.4,124.47a79,79,0,0,1,15.91,10.12,87.21,87.21,0,0,1,11.57,11.58c2.17-2.75,4.49-5.79,7.23-8.68A126.58,126.58,0,0,1,198,123a60.38,60.38,0,0,0-14.47,8.68,70,70,0,0,0-8.68,8.68,58.82,58.82,0,0,0-13-10.12A58.19,58.19,0,0,0,147.4,124.47Z"/><path class="cls-12" d="M208.15,150.51a41.19,41.19,0,0,1,13,7.23,36.24,36.24,0,0,1,5.79,5.79,46.32,46.32,0,0,1,5.78-7.24,48,48,0,0,1,11.58-8.68,30.32,30.32,0,0,0-8.68,4.34,34.65,34.65,0,0,0-8.68,8.68,32.26,32.26,0,0,0-7.24-5.78A34.11,34.11,0,0,0,208.15,150.51Z"/><path class="cls-12" d="M645.74,546.87a41.47,41.47,0,0,1,21.7,5.78,39.63,39.63,0,0,1,10.12,8.68,44.37,44.37,0,0,1,4.34-8.68,44.88,44.88,0,0,1,15.91-14.46,41.85,41.85,0,0,0-15.91,10.12,46.32,46.32,0,0,0-5.78,7.24,34.51,34.51,0,0,0-15.92-8.68A31.45,31.45,0,0,0,645.74,546.87Z"/><path class="cls-12" d="M588.89,514.32A26.43,26.43,0,0,1,599,524a25.11,25.11,0,0,1,2.9,7.81,28.64,28.64,0,0,1,4.92-3.47,27.84,27.84,0,0,1,13-3.18,26,26,0,0,0-11.71.72,27.77,27.77,0,0,0-5.36,2.17,21.27,21.27,0,0,0-6.07-9.55A21.93,21.93,0,0,0,588.89,514.32Z"/><path class="cls-13" d="M302,843.2c0,.44-17.58-.56-49.76-.56-32.84,0-50.87,1-50.87.56s22.78-2.77,50.32-2.77S302,842.64,302,843.2Z"/><path class="cls-13" d="M582.21,919c0,.55-16.92.55-50.87.55-33.17,0-49.76,0-49.76-.55,0-.78,23.88-2.77,50.31-2.77S582.21,918.17,582.21,919Z"/><path class="cls-13" d="M609.4,841c0,.56-16.91.56-50.86.56-33.18,0-49.77,0-49.77-.56,0-.77,23.89-2.76,50.32-2.76S609.4,840.21,609.4,841Z"/><path class="cls-13" d="M133.31,968.79c0,.56-16.92.56-50.87.56-33.17,0-49.76,0-49.76-.56C32.68,968,56.57,966,83,966S133.31,968,133.31,968.79Z"/><path class="cls-13" d="M109.41,883c0,.55-16.92.55-50.87.55-33.18,0-49.76,0-49.76-.55,0-.78,23.88-2.77,50.31-2.77S109.41,882.23,109.41,883Z"/><path class="cls-13" d="M338.48,949.36c0,.55-16.92.55-50.87.55-33.18,0-49.76,0-49.76-.55,0-.78,23.88-2.77,50.31-2.77S338.48,948.58,338.48,949.36Z"/><path class="cls-13" d="M399.3,889.64c0,.55-16.92.55-50.87.55-33.18,0-49.76,0-49.76-.55,0-.77,23.88-2.76,50.31-2.76S399.3,888.87,399.3,889.64Z"/><path class="cls-13" d="M696.05,968.79c0,.56-16.92.56-50.87.56-33.17,0-49.76,0-49.76-.56,0-.77,23.89-2.76,50.32-2.76S696.05,968,696.05,968.79Z"/><path class="cls-13" d="M759.77,889.64c0,.55-16.92.55-50.86.55-33.18,0-49.77,0-49.77-.55,0-.77,23.89-2.76,50.32-2.76S759.77,888.87,759.77,889.64Z"/></svg>