<svg id="Calque_1" data-name="Calque 1" xmlns="http://www.w3.org/2000/svg" xmlns:xlink="http://www.w3.org/1999/xlink" viewBox="0 0 1200 799.78"><defs><style>.cls-1{fill:url(#Dégradé_sans_nom);}.cls-2{fill:#e2a85a;}.cls-3,.cls-4{fill:#f5b95f;}.cls-4{stroke:#f5b95f;stroke-linecap:round;stroke-miterlimit:10;stroke-width:7px;}.cls-5{fill:#fccd8d;}.cls-6{fill:#2f557d;}.cls-7{fill:#eaeaea;}.cls-8{fill:#fff;}.cls-9{fill:#ededed;}.cls-10{fill:#efefef;}.cls-11{fill:none;}.cls-12{fill:#1e273c;}.cls-13{fill:#376691;}</style><linearGradient id="Dégradé_sans_nom" x1="600" y1="218.7" x2="600" y2="856.11" gradientTransform="matrix(1, 0, 0, -1, 0, 856.11)" gradientUnits="userSpaceOnUse"><stop offset="0" stop-color="#72b9ff"/><stop offset="1" stop-color="#5792cc"/></linearGradient></defs><rect class="cls-1" width="1200" height="637.41"/><path class="cls-2" d="M1026.66,238.79a54.19,54.19,0,0,1-10.62,1.14,50.26,50.26,0,0,1-50.28-50.22v-.07a47.18,47.18,0,0,1,1.13-10.59c.34,4.86,2.37,26.22,20.34,42.83A64.83,64.83,0,0,0,1026.66,238.79Z"/><path class="cls-3" d="M1066.32,189.64a50.4,50.4,0,0,1-39.53,49.15h0a64.75,64.75,0,0,1-39.42-16.94c-18-16.72-20-38-20.35-42.83v-.11a50.24,50.24,0,0,1,99.32,10.73Z"/><path class="cls-4" d="M1016,124.12V110"/><path class="cls-4" d="M1016,269.86V255.75"/><path class="cls-4" d="M1062.58,143.43l9.94-9.94"/><path class="cls-4" d="M959.55,246.48l9.94-9.94"/><path class="cls-4" d="M1081.91,190H1096"/><path class="cls-4" d="M936.15,189.87h14.13"/><path class="cls-4" d="M1062.58,236.42l9.94,9.94"/><path class="cls-4" d="M959.55,133.38l9.94,10"/><ellipse class="cls-5" cx="1041.21" cy="158.1" rx="3.95" ry="8.92" transform="translate(193.17 782.55) rotate(-45)"/><path class="cls-3" d="M1026.77,238.79h0a64.79,64.79,0,0,1-39.52-16.94c-18-16.72-20-38-20.34-42.83v-.11Z"/><rect class="cls-6" y="637.41" width="1200" height="162.37"/><path class="cls-7" d="M966.76,446.6a12.69,12.69,0,0,1-9.25,4H850.17a13.05,13.05,0,0,1-12.32-17.18c1,3.39,2.94,7.35,6.67,9.84a16.18,16.18,0,0,0,6.78,2.26C858.64,446.15,904.19,446.6,966.76,446.6Z"/><path class="cls-8" d="M970.5,437.56a13,13,0,0,1-3.62,9c-62.71,0-108.17-.45-115.45-1.12a16.18,16.18,0,0,1-6.78-2.26c-3.72-2.49-5.65-6.45-6.66-9.84a12.83,12.83,0,0,1,12.29-8.82H957.62A13,13,0,0,1,970.5,437.56Z"/><path class="cls-9" d="M807.24,446.83a13,13,0,0,1-9.61,4.29H777.87a13.06,13.06,0,0,1-13-13,10,10,0,0,1,.11-1.81c1.13,3.28,3.28,7.12,7.28,9.16a11.65,11.65,0,0,0,3.39,1.12C782.72,448,798.88,447.29,807.24,446.83Z"/><path class="cls-8" d="M810.59,438.13a12.47,12.47,0,0,1-3.38,8.7c-8.32.46-24.52,1-31.64-.23a11.65,11.65,0,0,1-3.39-1.12c-3.95-2.08-6.1-5.88-7.28-9.16a13,13,0,0,1,12.88-11.19h19.76a13,13,0,0,1,13.05,12.93Z"/><path class="cls-8" d="M997.61,429.66H890.28a13,13,0,0,1,0-26H997.61a13,13,0,0,1,0,26Z"/><path class="cls-10" d="M310.86,314.58a26.23,26.23,0,0,1-17.69,6.9H161.94a26.23,26.23,0,0,1-26.25-26.22v0c4.55,6.76,11.6,14.65,22.1,17.95.28.14.56.14.83.28s.56.14.83.28a1.2,1.2,0,0,0,.69.14h0a5.27,5.27,0,0,1,.69.14H161a.54.54,0,0,1,.42.13c.69.14,2.06.42,3.31.56C182.93,316.37,290.41,314.86,310.86,314.58Z"/><path class="cls-10" d="M312.51,313.19h-.28c-1,0-4.55.14-9.94.14-10.77.14-28.73.42-48.21.56h-.7c-39.92.41-85.91.83-88.68.55a15.47,15.47,0,0,1-3.31-.55.51.51,0,0,1-.42-.14h-.14c-.28,0-.42-.14-.69-.14h0c-.28,0-.42-.14-.69-.14a2,2,0,0,1-.83-.28c-.27-.14-.55-.14-.83-.27-10.5-3.31-17.55-11.19-22.1-18a35.79,35.79,0,0,1,.28-3.73c4.41,7.32,11.32,15.48,21.82,18.92a20.77,20.77,0,0,0,3.46.84c.55.13,1,.13,1.37.27.83.14,1.53.14,2.08.28a6.58,6.58,0,0,0,1.66.14h.83c.83,0,1.93.14,3,.14a8.33,8.33,0,0,1,1.93.14h0a7,7,0,0,1,1.65.13c28.88,1.1,98.91.83,127,.83h11.6Z"/><path class="cls-8" d="M319.42,295.24a26.19,26.19,0,0,1-7.19,17.95h0a12.84,12.84,0,0,1-1.37,1.39h0c-7.89,0-31.09-.28-56.92-.55h-.69c-30.52-.42-64.52-1-81.09-1.67h0a7.82,7.82,0,0,1-1.93-.14c-1.11,0-2.07-.13-3-.13h-.83c-.56,0-1.1-.13-1.66-.13a14.64,14.64,0,0,1-2.08-.28,5,5,0,0,1-1.37-.28c-1-.14-2.21-.55-3.46-.83-10.5-3.32-17.41-11.61-21.82-18.92v-.42a26.2,26.2,0,0,1,26-22.1H293.17a26,26,0,0,1,26.25,25.79Z"/><path class="cls-8" d="M233.77,269H102.54a19.34,19.34,0,1,1,0-38.68H233.77a19.34,19.34,0,0,1,0,38.68Z"/><path class="cls-10" d="M310.86,314.58c-20.45.28-127.93,1.79-146.16,0,2.63.28,48.62-.14,88.68-.55h.7C279.91,314.3,303.11,314.58,310.86,314.58Z"/><path class="cls-11" d="M311.13,314.58h-.27c-7.89,0-31.09-.28-56.92-.55h-.69c-30.52-.42-64.52-1-81.09-1.67h0a7.82,7.82,0,0,1-1.93-.14c-1.11,0-2.07-.13-3-.13h-.83c-.56,0-1.1-.13-1.66-.13a14.64,14.64,0,0,1-2.08-.28,5,5,0,0,1-1.37-.28c-1-.14-2.21-.55-3.46-.83-10.5-3.32-17.41-11.61-21.82-18.92-.14-.14-.14-.28-.28-.42H136q82.25,11,164.66,22.1a4.92,4.92,0,0,1,1.52.28c2.9.42,5.8.83,8.57,1.11A.84.84,0,0,1,311.13,314.58Z"/><path class="cls-11" d="M83.2,248.27c1.27,4.28,3.58,9.39,8.29,12.43a19.47,19.47,0,0,0,8.28,2.77c9.25,1,67.14,1.51,146.44,1.37"/><path class="cls-11" d="M971.06,446.6h-4.3"/><path class="cls-11" d="M837.85,433.38c0-.1-.1-.22-.1-.33"/><path class="cls-11" d="M811.76,446.6c-.91,0-2.49.11-4.52.23"/><path class="cls-11" d="M765,436.32c-.23-.79-.46-1.46-.69-2.15"/><path class="cls-12" d="M122.74,144.44a61.21,61.21,0,0,1,12.43,7.92,67.66,67.66,0,0,1,9,9c1.69-2.15,3.5-4.52,5.64-6.78a99.2,99.2,0,0,1,12.43-11.29A47.08,47.08,0,0,0,151,150.09a55.67,55.67,0,0,0-6.78,6.78,44.94,44.94,0,0,0-21.47-12.48Z"/><path class="cls-12" d="M170.2,164.75a32.52,32.52,0,0,1,10.16,5.65,28.35,28.35,0,0,1,4.52,4.51,37.13,37.13,0,0,1,4.52-5.64,37.63,37.63,0,0,1,9-6.78,23.63,23.63,0,0,0-6.77,3.39,26.8,26.8,0,0,0-6.78,6.78,25.36,25.36,0,0,0-5.64-4.52A26.69,26.69,0,0,0,170.2,164.75Z"/><path class="cls-12" d="M948.47,374.3a32.35,32.35,0,0,1,16.94,4.5,31.18,31.18,0,0,1,7.92,6.78,34.33,34.33,0,0,1,3.38-6.78,35.26,35.26,0,0,1,12.42-11.3,32.65,32.65,0,0,0-12.42,7.92,36.73,36.73,0,0,0-4.52,5.65,26.89,26.89,0,0,0-12.48-6.78A24.53,24.53,0,0,0,948.47,374.3Z"/><path class="cls-12" d="M904.06,348.88a20.55,20.55,0,0,1,7.91,7.57,19.55,19.55,0,0,1,2.26,6.09,22.93,22.93,0,0,1,3.84-2.71,21.84,21.84,0,0,1,10.17-2.49,20.53,20.53,0,0,0-9.15.57,21.25,21.25,0,0,0-4.16,1.7,16.59,16.59,0,0,0-4.75-7.46A16.79,16.79,0,0,0,904.06,348.88Z"/><path class="cls-13" d="M369.51,658.57c0,.35-13.73-.43-38.87-.43-25.65,0-39.73.78-39.73.43s17.79-2.16,39.3-2.16S369.51,658.14,369.51,658.57Z"/><path class="cls-13" d="M588.37,717.73c0,.44-13.21.44-39.73.44-25.91,0-38.86,0-38.86-.44,0-.6,18.65-2.15,39.3-2.15S588.37,717.13,588.37,717.73Z"/><path class="cls-13" d="M99.58,717.73c0,.44-13.22.44-39.73.44-25.91,0-38.86,0-38.86-.44,0-.6,18.66-2.15,39.29-2.15S99.58,717.13,99.58,717.73Z"/><path class="cls-13" d="M609.62,656.85c0,.42-13.22.42-39.73.42-25.92,0-38.87,0-38.87-.42,0-.61,18.65-2.17,39.3-2.17S609.62,656.26,609.62,656.85Z"/><path class="cls-13" d="M237.76,756.67c0,.43-13.21.43-39.73.43-25.9,0-38.86,0-38.86-.43,0-.6,18.66-2.16,39.3-2.16S237.76,756.11,237.76,756.67Z"/><path class="cls-13" d="M219.09,689.66c0,.44-13.21.44-39.72.44-25.91,0-38.87,0-38.87-.44,0-.6,18.66-2.15,39.3-2.15S219.09,689.06,219.09,689.66Z"/><path class="cls-13" d="M398,741.49c0,.43-13.22.43-39.73.43-25.91,0-38.86,0-38.86-.43,0-.61,18.64-2.17,39.29-2.17S398,740.88,398,741.49Z"/><path class="cls-13" d="M900.87,658.57c0,.35-13.74-.43-38.86-.43-25.66,0-39.73.78-39.73.43s17.78-2.16,39.29-2.16S900.87,658.14,900.87,658.57Z"/><path class="cls-13" d="M982.51,741.49c0,.43-13.21.43-39.73.43-25.91,0-38.86,0-38.86-.43,0-.61,18.66-2.17,39.29-2.17S982.51,740.88,982.51,741.49Z"/><path class="cls-13" d="M1030,694.85c0,.43-13.21.43-39.73.43-25.9,0-38.86,0-38.86-.43,0-.61,18.66-2.16,39.3-2.16S1030,694.24,1030,694.85Z"/><path class="cls-13" d="M677.29,756.67c0,.43-13.21.43-39.73.43-25.91,0-38.86,0-38.86-.43,0-.6,18.65-2.16,39.29-2.16S677.29,756.11,677.29,756.67Z"/><path class="cls-13" d="M1150.29,756.67c0,.43-13.22.43-39.73.43-25.92,0-38.87,0-38.87-.43,0-.6,18.65-2.16,39.3-2.16S1150.29,756.11,1150.29,756.67Z"/><path class="cls-13" d="M773.41,694.85c0,.43-13.2.43-39.72.43-25.91,0-38.87,0-38.87-.43,0-.61,18.66-2.16,39.3-2.16S773.41,694.24,773.41,694.85Z"/></svg>