<svg id="Calque_1" data-name="Calque 1" xmlns="http://www.w3.org/2000/svg" xmlns:xlink="http://www.w3.org/1999/xlink" viewBox="0 0 1024 768.99"><defs><style>.cls-1{fill:url(#Dégradé_sans_nom);}.cls-2{fill:#e2a85a;}.cls-3,.cls-4{fill:#f5b95f;}.cls-4{stroke:#f5b95f;stroke-linecap:round;stroke-miterlimit:10;stroke-width:7px;}.cls-5{fill:#fccd8d;}.cls-6{fill:#2f557d;}.cls-7{fill:#eaeaea;}.cls-8{fill:#fff;}.cls-9{fill:#ededed;}.cls-10{fill:#efefef;}.cls-11{fill:none;}.cls-12{fill:#1e273c;}.cls-13{fill:#376691;}</style><linearGradient id="Dégradé_sans_nom" x1="512" y1="243.24" x2="512" y2="856.11" gradientTransform="matrix(1, 0, 0, -1, 0, 856.11)" gradientUnits="userSpaceOnUse"><stop offset="0" stop-color="#72b9ff"/><stop offset="1" stop-color="#5792cc"/></linearGradient></defs><rect class="cls-1" width="1024" height="612.87"/><path class="cls-2" d="M854.81,229.49a53.08,53.08,0,0,1-10.21,1.09,48.31,48.31,0,0,1-48.34-48.28v-.07a45.86,45.86,0,0,1,1.08-10.18c.33,4.67,2.28,25.21,19.56,41.18A62.39,62.39,0,0,0,854.81,229.49Z"/><path class="cls-3" d="M892.94,182.23a48.46,48.46,0,0,1-38,47.26h0A62.32,62.32,0,0,1,817,213.2c-17.28-16.08-19.23-36.51-19.56-41.18v-.11A48.3,48.3,0,0,1,893,182.23Z"/><path class="cls-4" d="M844.6,119.23V105.65"/><path class="cls-4" d="M844.6,259.36V245.79"/><path class="cls-4" d="M889.35,137.8l9.56-9.56"/><path class="cls-4" d="M790.28,236.88l9.56-9.56"/><path class="cls-4" d="M907.93,182.56h13.58"/><path class="cls-4" d="M767.79,182.45h13.58"/><path class="cls-4" d="M889.35,227.21l9.56,9.56"/><path class="cls-4" d="M790.28,128.14l9.56,9.56"/><ellipse class="cls-5" cx="868.8" cy="151.91" rx="3.8" ry="8.58" transform="translate(147.05 658.83) rotate(-45)"/><path class="cls-3" d="M854.92,229.49h0a62.33,62.33,0,0,1-38-16.29c-17.28-16.08-19.23-36.51-19.56-41.18v-.11Z"/><rect class="cls-6" y="612.87" width="1024" height="156.12"/><path class="cls-7" d="M849.16,444.19a12.24,12.24,0,0,1-8.9,3.81H737.06a12.54,12.54,0,0,1-12.5-12.58,12.86,12.86,0,0,1,.65-3.94c1,3.26,2.83,7.07,6.41,9.46a15.55,15.55,0,0,0,6.52,2.17C745.2,443.76,789,444.19,849.16,444.19Z"/><path class="cls-8" d="M852.75,435.5a12.51,12.51,0,0,1-3.48,8.69c-60.29,0-104-.43-111-1.08a15.55,15.55,0,0,1-6.52-2.17c-3.58-2.39-5.43-6.2-6.41-9.46A12.34,12.34,0,0,1,737.16,423H840.37A12.47,12.47,0,0,1,852.75,435.5Z"/><path class="cls-9" d="M695.78,444.41a12.49,12.49,0,0,1-9.24,4.13h-19A12.57,12.57,0,0,1,655,436.05a9.25,9.25,0,0,1,.11-1.74c1.08,3.15,3.15,6.84,7,8.8a11,11,0,0,0,3.26,1.08C672.2,445.5,687.74,444.85,695.78,444.41Z"/><path class="cls-8" d="M699,436.05a12,12,0,0,1-3.25,8.36c-8,.44-23.58,1-30.42-.22a11,11,0,0,1-3.26-1.08c-3.8-2-5.87-5.65-7-8.8a12.53,12.53,0,0,1,12.38-10.76h19A12.49,12.49,0,0,1,699,436Z"/><path class="cls-8" d="M878.82,427.9H775.62a12.5,12.5,0,0,1,0-25h103.2a12.5,12.5,0,0,1,0,25Z"/><path class="cls-10" d="M298.89,302.47a25.26,25.26,0,0,1-17,6.64H155.7a25.22,25.22,0,0,1-25.23-25.22v0c4.37,6.5,11.15,14.09,21.25,17.26.27.14.54.14.79.27s.54.14.8.27a1.13,1.13,0,0,0,.67.14h0a5.13,5.13,0,0,1,.66.13h.13a.54.54,0,0,1,.41.12c.66.14,2,.41,3.18.54C175.89,304.19,279.23,302.74,298.89,302.47Z"/><path class="cls-10" d="M300.48,301.13h-.27c-.93,0-4.38.14-9.56.14-10.36.13-27.62.4-46.35.54h-.67c-38.38.39-82.61.79-85.27.52a14.87,14.87,0,0,1-3.18-.52.49.49,0,0,1-.41-.14h-.13c-.27,0-.4-.13-.66-.13h0c-.27,0-.4-.14-.67-.14a1.9,1.9,0,0,1-.8-.27c-.25-.13-.52-.13-.79-.25-10.1-3.19-16.88-10.76-21.25-17.28a30.64,30.64,0,0,1,.27-3.58c4.24,7,10.88,14.88,21,18.19A18.92,18.92,0,0,0,155,299a12.86,12.86,0,0,1,1.32.26c.8.13,1.47.13,2,.26a6.12,6.12,0,0,0,1.6.14h.79c.8,0,1.86.13,2.93.13a8.82,8.82,0,0,1,1.85.14h0a7,7,0,0,1,1.59.12c27.77,1.06,95.1.81,122.08.81h11.15Z"/><path class="cls-8" d="M307.12,283.87a25.2,25.2,0,0,1-6.91,17.26h0a11.93,11.93,0,0,1-1.32,1.34h0c-7.58,0-29.89-.27-54.73-.53h-.66c-29.34-.4-62-.94-78-1.6h0a7.66,7.66,0,0,1-1.85-.14c-1.07,0-2-.13-2.93-.13H160c-.54,0-1.07-.12-1.6-.12a13.54,13.54,0,0,1-2-.27,5,5,0,0,1-1.32-.27c-.93-.13-2.12-.53-3.32-.79-10.1-3.2-16.74-11.17-21-18.2V280a25.18,25.18,0,0,1,25-21.25H281.88a25,25,0,0,1,25.24,24.79Z"/><path class="cls-8" d="M224.77,258.63H98.59a18.6,18.6,0,0,1,0-37.19H224.77a18.6,18.6,0,1,1,0,37.19Z"/><path class="cls-10" d="M298.89,302.47c-19.66.27-123,1.72-140.53,0,2.53.27,46.75-.14,85.27-.53h.67C269.13,302.2,291.45,302.47,298.89,302.47Z"/><path class="cls-11" d="M299.15,302.47h-.26c-7.58,0-29.89-.27-54.73-.53h-.66c-29.34-.4-62-.94-78-1.6h0a8.19,8.19,0,0,1-1.85-.13c-1.07,0-2-.14-2.93-.14H160c-.54,0-1.07-.12-1.6-.12a13.54,13.54,0,0,1-2-.27,5,5,0,0,1-1.32-.27c-.93-.13-2.12-.53-3.32-.79-10.1-3.2-16.74-11.17-21-18.2-.14-.13-.14-.27-.27-.4h.27q79.08,10.56,158.32,21.25a4.54,4.54,0,0,1,1.46.27c2.78.4,5.57.79,8.24,1.06A.9.9,0,0,1,299.15,302.47Z"/><path class="cls-11" d="M80,238.72c1.23,4.1,3.45,9,8,11.94a18.77,18.77,0,0,0,8,2.67c8.9.93,64.55,1.45,140.8,1.32"/><path class="cls-11" d="M853.29,444.19h-4.13"/><path class="cls-11" d="M725.21,431.48c0-.1-.1-.21-.1-.32"/><path class="cls-11" d="M700.12,444.19c-.87,0-2.39.11-4.34.22"/><path class="cls-11" d="M655.15,434.31c-.22-.76-.44-1.41-.66-2.07"/><path class="cls-12" d="M118,138.88a58.76,58.76,0,0,1,12,7.61,64.87,64.87,0,0,1,8.69,8.69c1.63-2.07,3.37-4.35,5.43-6.52A96.09,96.09,0,0,1,156,137.8a45.38,45.38,0,0,0-10.86,6.51,54.26,54.26,0,0,0-6.52,6.52,43.11,43.11,0,0,0-20.64-12Z"/><path class="cls-12" d="M163.64,158.41a31.25,31.25,0,0,1,9.77,5.43,27.06,27.06,0,0,1,4.35,4.34,35.53,35.53,0,0,1,4.34-5.43,36.63,36.63,0,0,1,8.69-6.52,22.85,22.85,0,0,0-6.51,3.26,25.9,25.9,0,0,0-6.52,6.52,24.22,24.22,0,0,0-5.43-4.34A25.48,25.48,0,0,0,163.64,158.41Z"/><path class="cls-12" d="M831.57,374.67A31.2,31.2,0,0,1,847.86,379a29.72,29.72,0,0,1,7.61,6.52,33.07,33.07,0,0,1,3.25-6.52,33.85,33.85,0,0,1,11.95-10.86,31.52,31.52,0,0,0-11.95,7.61,34.93,34.93,0,0,0-4.34,5.43,25.86,25.86,0,0,0-12-6.52A23.64,23.64,0,0,0,831.57,374.67Z"/><path class="cls-12" d="M788.87,350.23a19.79,19.79,0,0,1,7.61,7.28,18.92,18.92,0,0,1,2.17,5.86,21.59,21.59,0,0,1,3.69-2.61,20.94,20.94,0,0,1,9.78-2.39,20.36,20.36,0,0,0-12.8,2.18,15.89,15.89,0,0,0-4.56-7.17A16.16,16.16,0,0,0,788.87,350.23Z"/><path class="cls-13" d="M355.28,633.22c0,.33-13.2-.42-37.37-.42-24.66,0-38.2.75-38.2.42s17.11-2.08,37.79-2.08S355.28,632.8,355.28,633.22Z"/><path class="cls-13" d="M565.72,690.1c0,.42-12.7.42-38.2.42-24.91,0-37.37,0-37.37-.42,0-.58,17.94-2.07,37.79-2.07S565.72,689.52,565.72,690.1Z"/><path class="cls-13" d="M95.75,690.1c0,.42-12.71.42-38.2.42-24.92,0-37.37,0-37.37-.42,0-.58,17.94-2.07,37.78-2.07S95.75,689.52,95.75,690.1Z"/><path class="cls-13" d="M586.15,631.56c0,.41-12.71.41-38.2.41-24.92,0-37.37,0-37.37-.41,0-.58,17.93-2.08,37.78-2.08S586.15,631,586.15,631.56Z"/><path class="cls-13" d="M228.61,727.54c0,.41-12.7.41-38.2.41-24.91,0-37.37,0-37.37-.41,0-.58,17.94-2.08,37.79-2.08S228.61,727,228.61,727.54Z"/><path class="cls-13" d="M210.66,663.11c0,.42-12.71.42-38.2.42-24.91,0-37.37,0-37.37-.42,0-.58,17.94-2.07,37.79-2.07S210.66,662.53,210.66,663.11Z"/><path class="cls-13" d="M382.69,712.94c0,.42-12.71.42-38.2.42-24.92,0-37.37,0-37.37-.42,0-.58,17.93-2.08,37.78-2.08S382.69,712.36,382.69,712.94Z"/><path class="cls-13" d="M428.36,668.1c0,.41-12.7.41-38.2.41-24.91,0-37.37,0-37.37-.41,0-.59,17.94-2.08,37.79-2.08S428.36,667.51,428.36,668.1Z"/><path class="cls-13" d="M866.19,633.22c0,.33-13.21-.42-37.37-.42-24.67,0-38.2.75-38.2.42s17.1-2.08,37.78-2.08S866.19,632.8,866.19,633.22Z"/><path class="cls-13" d="M944.69,712.94c0,.42-12.71.42-38.2.42-24.92,0-37.37,0-37.37-.42,0-.58,17.94-2.08,37.78-2.08S944.69,712.36,944.69,712.94Z"/><path class="cls-13" d="M990.36,668.1c0,.41-12.7.41-38.2.41-24.91,0-37.37,0-37.37-.41,0-.59,17.94-2.08,37.79-2.08S990.36,667.51,990.36,668.1Z"/><path class="cls-13" d="M651.22,727.54c0,.41-12.71.41-38.2.41-24.92,0-37.37,0-37.37-.41,0-.58,17.93-2.08,37.78-2.08S651.22,727,651.22,727.54Z"/><path class="cls-13" d="M743.64,668.1c0,.41-12.7.41-38.2.41-24.91,0-37.37,0-37.37-.41,0-.59,17.94-2.08,37.79-2.08S743.64,667.51,743.64,668.1Z"/></svg>