<?xml version="1.0" encoding="utf-8"?>
<!-- Generator: Adobe Illustrator 26.0.2, SVG Export Plug-In . SVG Version: 6.00 Build 0)  -->
<svg version="1.1" id="Calque_1" xmlns="http://www.w3.org/2000/svg" xmlns:xlink="http://www.w3.org/1999/xlink" x="0px" y="0px"
	 viewBox="0 0 428 926" style="enable-background:new 0 0 428 926;" xml:space="preserve">
<style type="text/css">
	.st0{fill:url(#SVGID_1_);}
	.st1{fill:#E2A85A;}
	.st2{fill:#F5B95F;}
	.st3{fill:#F5B95F;stroke:#F5B95F;stroke-width:7;stroke-linecap:round;stroke-miterlimit:10;}
	.st4{fill:#FCCD8D;}
	.st5{fill:#2F557D;}
	.st6{fill:#EAEAEA;}
	.st7{fill:#FFFFFF;}
	.st8{fill:#EDEDED;}
	.st9{fill:#EFEFEF;}
	.st10{fill:none;}
	.st11{fill:#1E273C;}
	.st12{fill:#376691;}
</style>
<g>
	
		<linearGradient id="SVGID_1_" gradientUnits="userSpaceOnUse" x1="214" y1="190" x2="214" y2="928" gradientTransform="matrix(1 0 0 -1 0 928)">
		<stop  offset="0" style="stop-color:#72B9FF"/>
		<stop  offset="1" style="stop-color:#5792CC"/>
	</linearGradient>
	<rect class="st0" width="428" height="738"/>
</g>
<g>
	<path class="st1" d="M312.9,214c-3,0.6-6.2,1-9.4,1c-24.6,0-44.5-19.9-44.5-44.5c0-3.2,0.3-6.4,1-9.4c0.3,4.3,2.1,23.2,18,37.9
		C292,212,308.1,213.7,312.9,214z"/>
	<path class="st2" d="M348,170.5c0,21.3-15,39.1-35,43.5l0,0c-4.8-0.3-20.9-2-34.9-15c-15.9-14.8-17.7-33.6-18-37.9c0,0,0,0,0-0.1
		c4.3-20,22.2-35,43.5-35C328.1,126,348,145.9,348,170.5z"/>
	<path class="st3" d="M303.5,112.5c0-4.2,0-8.3,0-12.5"/>
	<path class="st3" d="M303.5,241.5c0-4.2,0-8.3,0-12.5"/>
	<path class="st3" d="M344.7,129.6c2.9-2.9,5.9-5.9,8.8-8.8"/>
	<path class="st3" d="M253.5,220.8c2.9-2.9,5.9-5.9,8.8-8.8"/>
	<path class="st3" d="M361.8,170.8c4.2,0,8.3,0,12.5,0"/>
	<path class="st3" d="M232.8,170.7c4.2,0,8.3,0,12.5,0"/>
	<path class="st3" d="M344.7,211.9c2.9,2.9,5.9,5.9,8.8,8.8"/>
	<path class="st3" d="M253.5,120.7c2.9,2.9,5.9,5.9,8.8,8.8"/>
	
		<ellipse transform="matrix(0.7071 -0.7071 0.7071 0.7071 -5.4293 272.1244)" class="st4" cx="325.8" cy="142.6" rx="3.5" ry="7.9"/>
	<path class="st2" d="M313,214L313,214c-4.9-0.3-21-2-35-15c-15.9-14.8-17.7-33.6-18-37.9V161L313,214z"/>
</g>
<rect y="738" class="st5" width="428" height="188"/>
<g>
	<path class="st6" d="M340.2,513c-2.1,2.2-5,3.5-8.2,3.5h-95c-6.3,0-11.5-5.2-11.5-11.5c0-1.3,0.2-2.5,0.6-3.7
		c0.9,3,2.6,6.5,5.9,8.7c2.1,1.3,4.2,1.8,6,2C244.5,512.6,284.8,513,340.2,513z"/>
	<path class="st7" d="M343.5,505c0,3.1-1.2,5.9-3.2,8c-55.5,0-95.7-0.4-102.2-1c-1.8-0.2-3.9-0.7-6-2c-3.3-2.2-5-5.7-5.9-8.7
		c1.5-4.6,5.8-7.8,10.9-7.8h95C338.3,493.5,343.5,498.6,343.5,505z"/>
</g>
<g>
	<path class="st8" d="M199,513.2c-2.1,2.3-5.1,3.8-8.5,3.8H173c-6.3,0-11.5-5.2-11.5-11.5c0-0.5,0-1.1,0.1-1.6
		c1,2.9,2.9,6.3,6.4,8.1c1.2,0.6,2.3,0.9,3,1C177.3,514.2,191.6,513.6,199,513.2z"/>
	<path class="st7" d="M202,505.5c0,3-1.1,5.7-3,7.7c-7.4,0.4-21.7,0.9-28-0.2c-0.7-0.1-1.8-0.4-3-1c-3.5-1.8-5.4-5.2-6.4-8.1
		c0.8-5.6,5.6-9.9,11.4-9.9h17.5C196.8,494,202,499.1,202,505.5z"/>
</g>
<g>
	<path class="st7" d="M367.5,498h-95c-6.4,0-11.5-5.1-11.5-11.5s5.1-11.5,11.5-11.5h95c6.4,0,11.5,5.1,11.5,11.5
		S373.9,498,367.5,498z"/>
</g>
<g>
	<path class="st9" d="M194.8,294c-3.4,3.1-7.9,5-12.8,5H87c-10.5,0-19-8.5-19-19c3.3,4.9,8.4,10.6,16,13c0.2,0.1,0.4,0.1,0.6,0.2
		s0.4,0.1,0.6,0.2c0.2,0,0.3,0.1,0.5,0.1l0,0c0.2,0,0.4,0.1,0.5,0.1c0,0,0,0,0.1,0s0.2,0,0.3,0.1c0.5,0.1,1.5,0.3,2.4,0.4
		C102.2,295.3,180,294.2,194.8,294z"/>
	<path class="st9" d="M196,293c0,0-0.1,0-0.2,0c-0.7,0-3.3,0.1-7.2,0.1c-7.8,0.1-20.8,0.3-34.9,0.4h-0.5
		c-28.9,0.3-62.2,0.6-64.2,0.4c-1-0.1-1.9-0.2-2.4-0.4c-0.1,0-0.2,0-0.3-0.1h-0.1c-0.2,0-0.3-0.1-0.5-0.1l0,0
		c-0.2,0-0.3-0.1-0.5-0.1s-0.4-0.1-0.6-0.2s-0.4-0.1-0.6-0.2c-7.6-2.4-12.7-8.1-16-13c0-0.9,0.1-1.8,0.2-2.7
		c3.2,5.3,8.2,11.2,15.8,13.7c0.9,0.3,1.8,0.5,2.5,0.6c0.4,0.1,0.7,0.1,1,0.2c0.6,0.1,1.1,0.1,1.5,0.2c0.4,0,0.8,0.1,1.2,0.1
		c0.2,0,0.4,0,0.6,0c0.6,0,1.4,0.1,2.2,0.1c0.5,0,0.9,0,1.4,0.1l0,0c0.4,0,0.8,0,1.2,0.1c20.9,0.8,71.6,0.6,91.9,0.6
		c4.6,0,7.7,0,8.4,0C196,293,196,293,196,293z"/>
	<path class="st7" d="M201,280c0,5-2,9.6-5.2,13l0,0c-0.3,0.3-0.6,0.7-1,1l0,0c-5.7,0-22.5-0.2-41.2-0.4h-0.5
		c-22.1-0.3-46.7-0.7-58.7-1.2l0,0c-0.5,0-1,0-1.4-0.1c-0.8,0-1.5-0.1-2.2-0.1c-0.2,0-0.4,0-0.6,0c-0.4,0-0.8-0.1-1.2-0.1
		c-0.4,0-0.9-0.1-1.5-0.2c-0.3,0-0.7-0.1-1-0.2c-0.7-0.1-1.6-0.4-2.5-0.6c-7.6-2.4-12.6-8.4-15.8-13.7c0-0.1,0-0.2,0-0.3
		c1.4-9.1,9.3-16,18.8-16h95C192.5,261,201,269.5,201,280z"/>
</g>
<g>
	<path class="st7" d="M139,261H44c-7.7,0-14-6.3-14-14s6.3-14,14-14h95c7.7,0,14,6.3,14,14S146.7,261,139,261z"/>
</g>
<path class="st9" d="M194.8,294c-14.8,0.2-92.6,1.3-105.8,0c1.9,0.2,35.2-0.1,64.2-0.4h0.5C172.4,293.8,189.2,294,194.8,294z"/>
<path class="st10" d="M195,294h-0.2c-5.7,0-22.5-0.2-41.2-0.4h-0.5c-22.1-0.3-46.7-0.7-58.7-1.2l0,0c-0.5,0-1,0-1.4-0.1
	c-0.8,0-1.5-0.1-2.2-0.1c-0.2,0-0.4,0-0.6,0c-0.4,0-0.8-0.1-1.2-0.1c-0.4,0-0.9-0.1-1.5-0.2c-0.3,0-0.7-0.1-1-0.2
	c-0.7-0.1-1.6-0.4-2.5-0.6c-7.6-2.4-12.6-8.4-15.8-13.7c-0.1-0.1-0.1-0.2-0.2-0.3c0.1,0,0.2,0,0.2,0c39.7,5.3,79.5,10.6,119.2,16
	c0.4,0,0.8,0.1,1.1,0.2c2.1,0.3,4.2,0.6,6.2,0.8C194.9,294,195,294,195,294z"/>
<path class="st10" d="M30,246c0.9,3.1,2.6,6.8,6,9c2.1,1.3,4.2,1.8,6,2c6.7,0.7,48.6,1.1,106,1"/>
<path class="st10" d="M344,513c-1.3,0-2.5,0-3.8,0"/>
<path class="st10" d="M226.1,501.3c0-0.1-0.1-0.2-0.1-0.3"/>
<path class="st10" d="M203,513c-0.8,0-2.2,0.1-4,0.2"/>
<path class="st10" d="M161.6,503.9c-0.2-0.7-0.4-1.3-0.6-1.9"/>
<path class="st11" d="M65,157c3.1,1.5,7,3.7,11,7c3.4,2.8,6,5.6,8,8c1.5-1.9,3.1-4,5-6c3.8-4.1,7.6-7.4,11-10c-2.8,1.2-6.3,3-10,6
	c-2.5,2.1-4.5,4.2-6,6c-2-2-4.9-4.7-9-7C71.2,158.8,67.6,157.7,65,157z"/>
<path class="st11" d="M107,175c2.4,0.8,5.7,2.3,9,5c1.7,1.4,3,2.7,4,4c1-1.5,2.3-3.3,4-5c2.8-2.9,5.8-4.8,8-6c-1.6,0.5-3.8,1.4-6,3
	c-3,2.1-4.9,4.4-6,6c-1.1-1.2-2.8-2.7-5-4C111.9,176.1,109,175.4,107,175z"/>
<path class="st11" d="M324,449c2.9,0,8.9,0.3,15,4c3.2,1.9,5.5,4.2,7,6c0.7-1.8,1.6-3.9,3-6c3.6-5.4,8.2-8.5,11-10
	c-2.8,1-7.1,3-11,7c-1.7,1.7-3,3.5-4,5c-1.6-1.5-5.3-4.7-11-6C329.7,448,326,448.5,324,449z"/>
<path class="st11" d="M284.7,426.5c1.6,0.9,4.8,2.9,7,6.7c1.2,2,1.7,4,2,5.4c0.9-0.8,2-1.6,3.4-2.4c3.6-1.9,7-2.2,9-2.2
	c-1.8-0.3-4.8-0.5-8.1,0.5c-1.5,0.4-2.7,1-3.7,1.5c-0.4-1.3-1.5-4.2-4.2-6.6C288.1,427.7,286,426.9,284.7,426.5z"/>
<path class="st12" d="M119,762.5c0,0.4-15.9-0.5-45-0.5c-29.7,0-46,0.9-46,0.5c0-0.5,20.6-2.5,45.5-2.5C98.3,760,119,762,119,762.5z
	"/>
<path class="st12" d="M401,829.5c0,0.5-15.3,0.5-46,0.5c-30,0-45,0-45-0.5c0-0.7,21.6-2.5,45.5-2.5S401,828.8,401,829.5z"/>
<path class="st12" d="M397,760.5c0,0.5-15.3,0.5-46,0.5c-30,0-45,0-45-0.5c0-0.7,21.6-2.5,45.5-2.5S397,759.8,397,760.5z"/>
<path class="st12" d="M152,858.5c0,0.5-15.3,0.5-46,0.5c-30,0-45,0-45-0.5c0-0.7,21.6-2.5,45.5-2.5S152,857.8,152,858.5z"/>
<path class="st12" d="M207,804.5c0,0.5-15.3,0.5-46,0.5c-30,0-45,0-45-0.5c0-0.7,21.6-2.5,45.5-2.5S207,803.8,207,804.5z"/>
</svg>
