<svg id="Calque_1" data-name="Calque 1" xmlns="http://www.w3.org/2000/svg" viewBox="0 0 115.54 148.14"><defs><style>.cls-1{fill:#fff;}</style></defs><path class="cls-1" d="M58.07,35.19A13.83,13.83,0,0,0,72,21.28C72,13.72,66.22,0,58.07,0S44.15,13.92,44.15,21.28A13.7,13.7,0,0,0,58.07,35.19ZM58.07,4C63,4,68,15.11,68,21.28a10,10,0,0,1-9.94,9.94,10.11,10.11,0,0,1-10-9.94C47.93,15.11,53.1,4,58.07,4Z"/><path class="cls-1" d="M58.07,40.36c-20.28,0-37,23.67-37,52.9s16.51,52.89,37,52.89c20.28,0,37-23.66,37-52.89S78.35,40.36,58.07,40.36Zm15.11,84.91c-4.18,0-6.76,3-9,5.57-2,2.38-3.58,4.17-6,4.17s-4-2-6-4.17c-2.19-2.59-4.77-5.57-9.15-5.57-3.18,0-5.36,1.79-7.35,3.78a56.16,56.16,0,0,1-4.18-6.76,20.12,20.12,0,0,0,5.77-5c2.18-2.39,3.58-4,5.76-4h0c2.39,0,4,2,6,4.17,2.19,2.59,4.77,5.57,9,5.57s6.76-3,9.14-5.57c2-2.18,3.58-4.17,6-4.17,2.19,0,3.58,1.59,5.77,4,1.59,1.79,3.18,3.77,5.56,5a52.58,52.58,0,0,1-4,6.56C78.55,127.26,76.36,125.47,73.18,125.27Zm8.55-10.34c-2.19-2.59-4.57-5.37-8.75-5.37s-6.76,3-9,5.57c-2,2.38-3.58,4.17-6,4.17s-4-2-6-4.17c-2.19-2.59-4.77-5.57-9-5.57h0c-4,0-6.56,2.78-8.75,5.17a20.49,20.49,0,0,1-4.37,4,65.43,65.43,0,0,1-3.78-12.93h.6a5.48,5.48,0,0,0,1.79-.2c4.17-.79,6.56-3.38,8.75-6,2.18-2.39,3.58-4,5.76-4h0c2.39,0,4,2,6,4.18,2.19,2.58,4.77,5.57,9,5.57s6.76-3,9.14-5.57c2-2.19,3.58-4.18,6-4.18h0c2.19,0,3.58,1.59,5.76,4s4.58,5.37,8.75,5.77a5.08,5.08,0,0,0,2.39,0,67.51,67.51,0,0,1-3.78,13.12C84.51,118.11,83.12,116.52,81.73,114.93Zm9.15-21.67c0,2.78-.2,5.76-.4,8.35a9.66,9.66,0,0,1-2.39.2c-2.58-.4-4.37-2.39-6.16-4.58-2.19-2.58-4.58-5.37-8.75-5.37s-6.76,3-9,5.57c-2,2.19-3.58,4.18-6,4.18s-4-2-6-4.18c-2.19-2.58-4.77-5.57-8.95-5.57h0c-4,0-6.56,2.79-8.75,5.17-2,2.19-3.58,4.18-6.36,4.58a9.56,9.56,0,0,1-2.39,0,60.94,60.94,0,0,1-.59-8.55,44.69,44.69,0,0,1,.2-5.17c.59,0,1,.2,1.59.2a5.51,5.51,0,0,0,1.79-.2c4.17-.8,6.56-3.38,8.75-6,2.18-2.38,3.58-4,5.76-4h0c2.39,0,4,2,6,4.17,2.19,2.59,4.77,5.57,9,5.57s6.76-3,9.14-5.57c2-2.19,3.58-4.17,6-4.17,2.18,0,3.58,1.59,5.76,4s4.58,5.37,8.75,5.77a8.54,8.54,0,0,0,3.18-.2C90.88,89.68,90.88,91.47,90.88,93.26ZM28.64,72.38c4-.8,6.56-3.38,8.75-6,2.18-2.38,3.58-4,5.76-4h0c2.39,0,4,2,6,4.17,2.19,2.59,4.77,5.57,9,5.57s6.76-3,9.14-5.57c2-2.19,3.58-4.17,6-4.17h0c2.19,0,3.58,1.59,5.77,4s4.57,5.37,8.74,5.77h.2a69.27,69.27,0,0,1,2.59,11.53,9.66,9.66,0,0,1-2.39.2c-2.58-.4-4.37-2.39-6.16-4.57C79.74,76.75,77.35,74,73.18,74s-6.76,3-9,5.57c-2,2.38-3.58,4.17-6,4.17s-4-2-6-4.17C50.11,77,47.53,74,43.15,74c-4,0-6.56,2.78-8.75,5.17-2,2.19-3.57,4.17-6.36,4.57a4.8,4.8,0,0,1-2.38,0A71.9,71.9,0,0,1,28.24,72C28.24,72.38,28.44,72.38,28.64,72.38ZM66.42,45.93c-.8.8-1.59,1.79-2.39,2.59-2,2.18-3.58,4.17-6,4.17s-4-2-6-4.17a30.47,30.47,0,0,0-2.38-2.59,22.72,22.72,0,0,1,16.7,0Zm-20.68,2a18.26,18.26,0,0,1,3.38,3.38c2.19,2.59,4.77,5.57,9,5.57s6.76-3,9.14-5.57a24.44,24.44,0,0,1,3.18-3.18C77,52.1,82.52,59.25,86.3,68.2a16.09,16.09,0,0,1-4.37-4c-2.19-2.59-4.58-5.37-8.75-5.37h0c-4.18,0-6.76,3-9,5.56-2,2.39-3.58,4.18-6,4.18s-4-2-6-4.18c-2.19-2.58-4.77-5.56-8.95-5.56h0c-4,0-6.56,2.78-8.75,5.17a16.09,16.09,0,0,1-4.37,4C33.41,58.86,39,51.9,45.74,47.92Zm12.33,94.25c-7.36,0-14.32-3.78-19.89-9.94,1.59-1.79,3-3,4.78-3,2.38,0,4,2,6,4.17C51.11,136,53.69,139,57.87,139s6.76-3,9.14-5.57c2-2.19,3.58-4.17,6-4.17h0c1.79,0,3.18,1,4.77,3C72.38,138.59,65.42,142.17,58.07,142.17Z"/><path class="cls-1" d="M98.83,68.4a60.7,60.7,0,0,1,2.58,11.33c.6,3.58.8,6.17,3.38,6.57h.4c1.39,0,2.79-.8,4.18-2.39,3.78-4.37,7.95-14.71,5.37-24.06C111.36,47.92,98.63,41.56,90.68,40c-3.38-.6-5.57-.4-6.76,1-1.59,2,.19,4.18,2.78,7.16C90.08,52.1,95.45,58.26,98.83,68.4ZM97,46.33c4.18,2,11.53,6.56,13.72,14.52,2.58,9.14-2.59,18.88-5.17,21.07a11.63,11.63,0,0,1-.4-2.78A58.51,58.51,0,0,0,102.41,67,62.11,62.11,0,0,0,89.68,45.53c-.59-.59-1.19-1.39-1.79-2A25.92,25.92,0,0,1,97,46.33Z"/><path class="cls-1" d="M10.54,86.3h.4c2.59-.4,3-3,3.38-6.57A61.7,61.7,0,0,1,16.91,68.4,59.89,59.89,0,0,1,28.84,48.32c2.58-3,4.37-5.17,2.78-7.16-1-1.39-3.18-1.79-6.76-1C17.11,41.56,4.18,48.12.8,60.05-1.78,69.4,2.39,79.74,6.17,84.11,8,85.5,9.35,86.3,10.54,86.3ZM5,60.85c2.18-8,9.54-12.53,13.72-14.52a27.62,27.62,0,0,1,8.94-2.78,15.25,15.25,0,0,1-1.79,2A62.13,62.13,0,0,0,13.13,67a95.81,95.81,0,0,0-2.78,12.13c-.2,1-.2,2-.4,2.78C7.56,79.73,2.39,70,5,60.85Z"/><path class="cls-1" d="M21.88,132.83a73.59,73.59,0,0,1-5.37-11.14c-1.19-3-2-5-4.38-5h-.19c-2.39,0-4.18,2.78-5.17,5-2.79,5.77-3.58,13.92.59,19.69,3.58,4.77,9.75,6.76,14.32,6.76h.79c2.59-.2,4.58-1,5.37-2.39,1.2-2,0-3.78-2-6.56C24.86,137.6,23.47,135.61,21.88,132.83ZM20.68,144c-3.18-.2-7.75-1.79-10.14-5.17-3.18-4.18-2-9.94-1.39-12.13a13.86,13.86,0,0,1,2.79-5.77,16.93,16.93,0,0,0,1,2.19,74.28,74.28,0,0,0,5.77,11.73c1.79,3,3.18,5,4.17,6.57.6,1,1.2,1.79,1.59,2.38A10.26,10.26,0,0,1,20.68,144Z"/><path class="cls-1" d="M103.8,116.72h0c-2.39,0-3.18,2.19-4.37,5a102.8,102.8,0,0,1-5.37,11.14,70,70,0,0,1-4,6.16c-2,2.78-3.18,4.57-2,6.56q1.2,2.08,5.37,2.39h.8c4.77,0,10.93-2,14.31-6.76,4.18-5.77,3.38-13.92.6-19.69C108,119.3,106.19,116.72,103.8,116.72ZM105.19,139c-2.38,3.38-7,4.77-10.14,5.17a7.35,7.35,0,0,1-3.58-.4,24.88,24.88,0,0,1,1.59-2.38c1-1.6,2.59-3.58,4.18-6.57A117.48,117.48,0,0,0,103,123.08c.4-.79.6-1.59,1-2.19a13.88,13.88,0,0,1,2.78,5.77C107.38,129.05,108.37,134.81,105.19,139Z"/></svg>